<svg width="273" height="49" viewBox="0 0 273 49" fill="none" xmlns="http://www.w3.org/2000/svg">
<g filter="url(#filter0_i)">
<path d="M1 1.14841L239.611 2.89841L251.501 4.29841L264.21 7.09841L246.991 6.04841L265.03 10.5984L246.171 7.79841L265.03 11.9984L246.991 10.0257L264.21 12.6984L246.171 11.9984L272 14.0984H246.171L265.03 17.2484L253.551 17.837L264.21 19.6984H253.551L264.21 22.4984H255.191L267.49 24.5984H243.301L264.21 27.7484L243.301 27.0484L267.49 29.8484L243.301 29.1484L267.49 31.5984H244.941L266.26 33.6984L245.351 34.0484L267.49 36.4984L220.752 42.127L235.101 40.6984L226.902 42.0984L220.752 42.127L1 43.1484V1.14841Z" fill="#FD8CFF"/>
</g>
<path d="M1 1.14841L239.611 2.89841L251.501 4.29841L264.21 7.09841L246.991 6.04841L265.03 10.5984L246.171 7.79841L265.03 11.9984L246.991 10.0257L264.21 12.6984L246.171 11.9984L272 14.0984H246.171L265.03 17.2484L253.551 17.837L264.21 19.6984H253.551L264.21 22.4984H255.191L267.49 24.5984H243.301L264.21 27.7484L243.301 27.0484L267.49 29.8484L243.301 29.1484L267.49 31.5984H244.941L266.26 33.6984L245.351 34.0484L267.49 36.4984L220.752 42.127L235.101 40.6984L226.902 42.0984L220.752 42.127L1 43.1484V1.14841Z" stroke="#FB24FF" stroke-width="2"/>
<path d="M33.6035 11.4433C33.8379 11.4433 34.043 11.5459 34.2188 11.7509C34.3945 11.956 34.4824 12.2099 34.4824 12.5127C34.4824 12.9228 34.3164 13.3818 33.9844 13.8896C33.6621 14.3877 33.1934 14.9101 32.5781 15.457C32.4707 16.0039 32.3779 16.6289 32.2998 17.332C32.2217 18.0254 32.1826 18.8164 32.1826 19.705C32.1826 21.0722 32.1387 22.4052 32.0508 23.7041C31.9629 25.0029 31.7969 26.2236 31.5527 27.3662C31.3086 28.5088 30.9619 29.5586 30.5127 30.5156C30.0732 31.4726 29.4922 32.2978 28.7695 32.9912C28.0566 33.6748 27.1875 34.207 26.1621 34.5879C25.1367 34.9785 23.9209 35.1738 22.5146 35.1738C21.3428 35.1738 20.2979 35.0371 19.3799 34.7636C18.4619 34.4902 17.6807 34.1142 17.0361 33.6357C16.4014 33.1474 15.9131 32.581 15.5713 31.9365C15.2393 31.2822 15.0732 30.5742 15.0732 29.8125C15.0732 29.0508 15.2344 28.3476 15.5566 27.7031C15.8789 27.0488 16.3135 26.4824 16.8604 26.0039C17.4072 25.5156 18.042 25.1347 18.7646 24.8613C19.4971 24.5879 20.2734 24.4511 21.0938 24.4511C21.2207 24.4511 21.3477 24.456 21.4746 24.4658C21.6113 24.4658 21.7334 24.4853 21.8408 24.5244C21.9482 24.5537 22.0361 24.6123 22.1045 24.7002C22.1826 24.7783 22.2217 24.8906 22.2217 25.0371C22.2217 25.1933 22.1631 25.3252 22.0459 25.4326C21.9385 25.5302 21.8115 25.5791 21.665 25.5791C21.5674 25.5791 21.4697 25.5791 21.3721 25.5791C21.2842 25.5693 21.1914 25.5644 21.0938 25.5644C20.4297 25.5644 19.7998 25.6718 19.2041 25.8867C18.6084 26.1015 18.0859 26.3994 17.6367 26.7802C17.1875 27.1611 16.8311 27.6103 16.5674 28.1279C16.3037 28.6455 16.1719 29.207 16.1719 29.8125C16.1719 30.3496 16.2695 30.8281 16.4648 31.248C16.6602 31.6679 16.9238 32.039 17.2559 32.3613C17.5879 32.6738 17.9688 32.9424 18.3984 33.167C18.8379 33.3916 19.2969 33.5722 19.7754 33.709C20.2539 33.8457 20.7373 33.9482 21.2256 34.0166C21.7236 34.0752 22.1973 34.1045 22.6465 34.1045C23.8867 34.1045 24.9561 33.9287 25.8545 33.5771C26.7529 33.2256 27.5098 32.7324 28.125 32.0976C28.75 31.4629 29.2529 30.706 29.6338 29.8271C30.0146 28.9384 30.3125 27.9619 30.5273 26.8974C30.7422 25.8232 30.8838 24.6806 30.9521 23.4697C31.0303 22.249 31.0742 20.9892 31.084 19.6904C31.0938 19.0654 31.1182 18.455 31.1572 17.8593C31.1963 17.2539 31.25 16.707 31.3184 16.2187C30.9277 16.4238 30.498 16.624 30.0293 16.8193C29.5605 17.0146 29.0869 17.2197 28.6084 17.4345C28.1396 17.6396 27.6807 17.8642 27.2314 18.1084C26.7822 18.3427 26.3818 18.6064 26.0303 18.8994C25.6885 19.1826 25.4102 19.5049 25.1953 19.8662C24.9902 20.2177 24.8877 20.6133 24.8877 21.0527C24.8877 21.4531 24.9561 21.8047 25.0928 22.1074C25.2295 22.4004 25.4004 22.6494 25.6055 22.8545C25.8105 23.0595 26.0352 23.2304 26.2793 23.3672C26.5234 23.4941 26.748 23.5966 26.9531 23.6748C27.168 23.7431 27.3486 23.7968 27.4951 23.8359C27.6514 23.8652 27.7393 23.8799 27.7588 23.8799C27.9248 23.9287 28.0371 23.997 28.0957 24.0849C28.1543 24.1631 28.1836 24.2607 28.1836 24.3779C28.1836 24.5439 28.1348 24.6806 28.0371 24.7881C27.9395 24.8857 27.8174 24.9345 27.6709 24.9345C27.6514 24.9345 27.6074 24.9345 27.5391 24.9345C27.4805 24.9248 27.4414 24.915 27.4219 24.9052C27.0996 24.8369 26.7285 24.7197 26.3086 24.5537C25.8887 24.3779 25.4883 24.1386 25.1074 23.8359C24.7363 23.5234 24.4189 23.1328 24.1553 22.664C23.9014 22.1953 23.7744 21.624 23.7744 20.9502C23.7744 20.3545 23.9209 19.8271 24.2139 19.3681C24.5068 18.9091 24.8877 18.499 25.3564 18.1377C25.835 17.7763 26.3623 17.4541 26.9385 17.1709C27.5244 16.8877 28.1055 16.624 28.6816 16.3799C29.2578 16.1259 29.7998 15.8818 30.3076 15.6474C30.8154 15.4131 31.2305 15.1591 31.5527 14.8857C31.8262 13.7041 32.1436 12.8349 32.5049 12.2783C32.8662 11.7216 33.2324 11.4433 33.6035 11.4433ZM39.0316 34.8662C39.7543 34.5439 40.4086 34.1728 40.9945 33.7529C41.5902 33.333 42.1176 32.8935 42.5766 32.4345C43.0453 31.9658 43.4408 31.4922 43.7631 31.0136C44.0951 30.5254 44.3588 30.0615 44.5541 29.622C44.642 29.4072 44.808 29.2998 45.0521 29.2998C45.2182 29.2998 45.35 29.3584 45.4477 29.4756C45.5551 29.583 45.6088 29.705 45.6088 29.8418C45.6088 29.9199 45.5941 29.9931 45.5648 30.0615C45.35 30.54 45.0766 31.0381 44.7445 31.5556C44.4125 32.0634 44.0072 32.5664 43.5287 33.0644C43.06 33.5527 42.5082 34.0263 41.8734 34.4853C41.2387 34.9443 40.5111 35.3642 39.6908 35.7451C40.2182 36.292 40.6771 36.8974 41.0678 37.5615C41.4584 38.2353 41.7807 38.9336 42.0346 39.6562C42.2982 40.3789 42.4936 41.1064 42.6205 41.8388C42.7572 42.581 42.8256 43.289 42.8256 43.9629C42.8256 44.5781 42.767 45.1543 42.6498 45.6914C42.5424 46.2383 42.3764 46.7119 42.1518 47.1123C41.9369 47.5127 41.6732 47.8252 41.3607 48.0498C41.0482 48.2841 40.6918 48.4013 40.2914 48.4013C39.7055 48.4013 39.2514 48.1816 38.9291 47.7422C38.6068 47.3125 38.3676 46.7119 38.2113 45.9404C38.0648 45.1787 37.977 44.2754 37.9477 43.2304C37.9281 42.1953 37.9184 41.0674 37.9184 39.8466C37.9184 39.2412 37.9184 38.5332 37.9184 37.7226C37.9184 36.9218 37.9184 36.0576 37.9184 35.1299C37.9281 34.2119 37.933 33.25 37.933 32.2441C37.9428 31.2285 37.9525 30.2129 37.9623 29.1972C37.9721 28.1816 37.9818 27.1855 37.9916 26.209C38.0014 25.2226 38.016 24.29 38.0355 23.4111C38.0648 21.7314 38.1234 20.2324 38.2113 18.914C38.2992 17.5957 38.4408 16.4824 38.6361 15.5742C38.8314 14.666 39.0951 13.9775 39.4271 13.5088C39.7689 13.0302 40.1986 12.791 40.7162 12.791C41.1264 12.791 41.473 12.9082 41.7563 13.1425C42.0395 13.3672 42.2689 13.6748 42.4447 14.0654C42.6205 14.4463 42.7475 14.8955 42.8256 15.4131C42.9037 15.9306 42.9428 16.4726 42.9428 17.039C42.9428 18.2304 42.8402 19.3828 42.6352 20.4961C42.4301 21.6093 42.1518 22.6884 41.8002 23.7334C41.4486 24.7783 41.0336 25.7988 40.5551 26.7949C40.0863 27.791 39.5834 28.7724 39.0463 29.7392C39.0463 30.1396 39.0463 30.5742 39.0463 31.0429C39.0463 31.5019 39.0463 31.9658 39.0463 32.4345C39.0463 32.8935 39.0414 33.3379 39.0316 33.7675C39.0316 34.1875 39.0316 34.5537 39.0316 34.8662ZM39.0756 27.4834C39.476 26.7314 39.8422 25.9404 40.1742 25.1103C40.516 24.2705 40.809 23.4062 41.0531 22.5175C41.2973 21.6289 41.4877 20.7207 41.6244 19.7929C41.7611 18.8652 41.8295 17.9326 41.8295 16.9951C41.8295 16.5263 41.8051 16.1015 41.7563 15.7207C41.7172 15.3398 41.6488 15.0175 41.5512 14.7539C41.4633 14.4804 41.3461 14.2705 41.1996 14.124C41.0629 13.9677 40.9018 13.8896 40.7162 13.8896C40.5209 13.8896 40.35 14.0068 40.2035 14.2412C40.057 14.4756 39.9301 14.7881 39.8227 15.1787C39.7152 15.5693 39.6225 16.0185 39.5443 16.5263C39.476 17.0341 39.4174 17.5664 39.3686 18.123C39.3197 18.6699 39.2807 19.2216 39.2514 19.7783C39.2221 20.3252 39.1977 20.8427 39.1781 21.331C39.1684 21.8095 39.1586 22.2343 39.1488 22.6054C39.1488 22.9765 39.1488 23.2549 39.1488 23.4404C39.1391 23.831 39.1293 24.1777 39.1195 24.4804C39.1195 24.7832 39.1146 25.081 39.1049 25.374C39.0951 25.667 39.0854 25.9795 39.0756 26.3115C39.0756 26.6435 39.0756 27.0341 39.0756 27.4834ZM39.0316 36.6679C39.0316 37.2832 39.0268 37.8545 39.017 38.3818C39.017 38.9189 39.017 39.4072 39.017 39.8466C39.017 40.7549 39.0219 41.6533 39.0316 42.542C39.0414 43.4306 39.0854 44.2265 39.1635 44.9297C39.2514 45.6425 39.3783 46.2138 39.5443 46.6435C39.7201 47.083 39.9691 47.3027 40.2914 47.3027C40.5844 47.3027 40.8236 47.1709 41.0092 46.9072C41.1947 46.6435 41.3363 46.331 41.434 45.9697C41.5414 45.6084 41.6146 45.2373 41.6537 44.8564C41.6928 44.4853 41.7123 44.1826 41.7123 43.9482C41.7123 43.3525 41.6537 42.7275 41.5365 42.0732C41.4291 41.4189 41.2582 40.7695 41.0238 40.125C40.7992 39.4902 40.5209 38.875 40.1889 38.2793C39.8568 37.6836 39.4711 37.1465 39.0316 36.6679ZM74.9074 11.4433C75.1418 11.4433 75.3469 11.5459 75.5227 11.7509C75.6984 11.956 75.7863 12.2099 75.7863 12.5127C75.7863 12.9228 75.6203 13.3818 75.2883 13.8896C74.966 14.3877 74.4973 14.9101 73.882 15.457C73.7746 16.0039 73.6818 16.6289 73.6037 17.332C73.5256 18.0254 73.4865 18.8164 73.4865 19.705C73.4865 21.0722 73.4426 22.4052 73.3547 23.7041C73.2668 25.0029 73.1008 26.2236 72.8566 27.3662C72.6125 28.5088 72.2658 29.5586 71.8166 30.5156C71.3771 31.4726 70.7961 32.2978 70.0734 32.9912C69.3605 33.6748 68.4914 34.207 67.466 34.5879C66.4406 34.9785 65.2248 35.1738 63.8186 35.1738C62.6467 35.1738 61.6018 35.0371 60.6838 34.7636C59.7658 34.4902 58.9846 34.1142 58.34 33.6357C57.7053 33.1474 57.217 32.581 56.8752 31.9365C56.5432 31.2822 56.3771 30.5742 56.3771 29.8125C56.3771 29.0508 56.5383 28.3476 56.8605 27.7031C57.1828 27.0488 57.6174 26.4824 58.1643 26.0039C58.7111 25.5156 59.3459 25.1347 60.0686 24.8613C60.801 24.5879 61.5773 24.4511 62.3977 24.4511C62.5246 24.4511 62.6516 24.456 62.7785 24.4658C62.9152 24.4658 63.0373 24.4853 63.1447 24.5244C63.2521 24.5537 63.34 24.6123 63.4084 24.7002C63.4865 24.7783 63.5256 24.8906 63.5256 25.0371C63.5256 25.1933 63.467 25.3252 63.3498 25.4326C63.2424 25.5302 63.1154 25.5791 62.9689 25.5791C62.8713 25.5791 62.7736 25.5791 62.676 25.5791C62.5881 25.5693 62.4953 25.5644 62.3977 25.5644C61.7336 25.5644 61.1037 25.6718 60.508 25.8867C59.9123 26.1015 59.3898 26.3994 58.9406 26.7802C58.4914 27.1611 58.135 27.6103 57.8713 28.1279C57.6076 28.6455 57.4758 29.207 57.4758 29.8125C57.4758 30.3496 57.5734 30.8281 57.7687 31.248C57.9641 31.6679 58.2277 32.039 58.5598 32.3613C58.8918 32.6738 59.2727 32.9424 59.7023 33.167C60.1418 33.3916 60.6008 33.5722 61.0793 33.709C61.5578 33.8457 62.0412 33.9482 62.5295 34.0166C63.0275 34.0752 63.5012 34.1045 63.9504 34.1045C65.1906 34.1045 66.26 33.9287 67.1584 33.5771C68.0568 33.2256 68.8137 32.7324 69.4289 32.0976C70.0539 31.4629 70.5568 30.706 70.9377 29.8271C71.3186 28.9384 71.6164 27.9619 71.8312 26.8974C72.0461 25.8232 72.1877 24.6806 72.2561 23.4697C72.3342 22.249 72.3781 20.9892 72.3879 19.6904C72.3977 19.0654 72.4221 18.455 72.4611 17.8593C72.5002 17.2539 72.5539 16.707 72.6223 16.2187C72.2316 16.4238 71.802 16.624 71.3332 16.8193C70.8645 17.0146 70.3908 17.2197 69.9123 17.4345C69.4436 17.6396 68.9846 17.8642 68.5354 18.1084C68.0861 18.3427 67.6857 18.6064 67.3342 18.8994C66.9924 19.1826 66.7141 19.5049 66.4992 19.8662C66.2941 20.2177 66.1916 20.6133 66.1916 21.0527C66.1916 21.4531 66.26 21.8047 66.3967 22.1074C66.5334 22.4004 66.7043 22.6494 66.9094 22.8545C67.1145 23.0595 67.3391 23.2304 67.5832 23.3672C67.8273 23.4941 68.052 23.5966 68.257 23.6748C68.4719 23.7431 68.6525 23.7968 68.799 23.8359C68.9553 23.8652 69.0432 23.8799 69.0627 23.8799C69.2287 23.9287 69.341 23.997 69.3996 24.0849C69.4582 24.1631 69.4875 24.2607 69.4875 24.3779C69.4875 24.5439 69.4387 24.6806 69.341 24.7881C69.2434 24.8857 69.1213 24.9345 68.9748 24.9345C68.9553 24.9345 68.9113 24.9345 68.843 24.9345C68.7844 24.9248 68.7453 24.915 68.7258 24.9052C68.4035 24.8369 68.0324 24.7197 67.6125 24.5537C67.1926 24.3779 66.7922 24.1386 66.4113 23.8359C66.0402 23.5234 65.7229 23.1328 65.4592 22.664C65.2053 22.1953 65.0783 21.624 65.0783 20.9502C65.0783 20.3545 65.2248 19.8271 65.5178 19.3681C65.8107 18.9091 66.1916 18.499 66.6604 18.1377C67.1389 17.7763 67.6662 17.4541 68.2424 17.1709C68.8283 16.8877 69.4094 16.624 69.9855 16.3799C70.5617 16.1259 71.1037 15.8818 71.6115 15.6474C72.1193 15.4131 72.5344 15.1591 72.8566 14.8857C73.1301 13.7041 73.4475 12.8349 73.8088 12.2783C74.1701 11.7216 74.5363 11.4433 74.9074 11.4433ZM109.89 12.8935C109.89 13.2353 109.797 13.5722 109.611 13.9043C109.426 14.2363 109.187 14.5439 108.894 14.8271C108.601 15.1103 108.269 15.3691 107.897 15.6035C107.536 15.8281 107.175 16.0136 106.813 16.1601C106.716 16.5703 106.638 17.0293 106.579 17.5371C106.521 18.0351 106.481 18.5918 106.462 19.207C106.442 19.9687 106.413 20.7256 106.374 21.4775C106.335 22.2295 106.276 22.9765 106.198 23.7187C106.989 23.6894 107.854 23.6601 108.791 23.6308C109.729 23.5918 110.71 23.5576 111.735 23.5283C112.761 23.499 113.811 23.4746 114.885 23.455C115.969 23.4355 117.048 23.4258 118.122 23.4258C118.2 21.8633 118.371 20.4765 118.635 19.2656C118.898 18.0547 119.24 17.0341 119.66 16.2041C120.09 15.374 120.593 14.7441 121.169 14.3144C121.745 13.8847 122.385 13.6699 123.088 13.6699C123.205 13.6699 123.347 13.6797 123.513 13.6992C123.688 13.7187 123.859 13.7578 124.025 13.8164C124.191 13.8652 124.333 13.9433 124.45 14.0508C124.567 14.1484 124.626 14.2851 124.626 14.4609C124.626 14.5097 124.621 14.5586 124.611 14.6074C124.602 14.6465 124.582 14.6904 124.553 14.7392C124.445 14.915 124.299 15.0029 124.113 15.0029C124.035 15.0029 123.972 14.9931 123.923 14.9736C123.884 14.9443 123.83 14.9199 123.762 14.9004C123.703 14.8711 123.625 14.8466 123.527 14.8271C123.43 14.7978 123.293 14.7832 123.117 14.7832C122.971 14.7832 122.78 14.8125 122.546 14.8711C122.321 14.9199 122.077 15.042 121.813 15.2373C121.55 15.4326 121.276 15.7207 120.993 16.1015C120.72 16.4726 120.461 16.9804 120.217 17.625C119.982 18.2597 119.772 19.0508 119.587 19.998C119.411 20.9453 119.294 22.0879 119.235 23.4258C119.88 23.4355 120.515 23.4453 121.14 23.455C121.765 23.4648 122.38 23.4795 122.985 23.499C123.151 23.499 123.278 23.5576 123.366 23.6748C123.464 23.7822 123.513 23.914 123.513 24.0703C123.513 24.2265 123.459 24.3535 123.352 24.4511C123.244 24.5488 123.117 24.5976 122.971 24.5976C122.775 24.5976 122.57 24.5976 122.355 24.5976C122.15 24.5879 121.901 24.5781 121.608 24.5683C121.325 24.5586 120.988 24.5488 120.598 24.539C120.207 24.5293 119.743 24.5244 119.206 24.5244C119.196 24.6806 119.191 24.8369 119.191 24.9931C119.191 25.1494 119.191 25.3105 119.191 25.4765C119.191 26.5508 119.23 27.5127 119.309 28.3623C119.396 29.2119 119.499 29.9638 119.616 30.6181C119.743 31.2724 119.88 31.834 120.026 32.3027C120.173 32.7617 120.31 33.1425 120.437 33.4453C120.563 33.7383 120.666 33.958 120.744 34.1045C120.832 34.2412 120.876 34.3095 120.876 34.3095C120.944 34.4072 120.979 34.5146 120.979 34.6318C120.979 34.7783 120.925 34.9052 120.817 35.0127C120.71 35.1299 120.578 35.1884 120.422 35.1884C120.236 35.1884 120.09 35.1103 119.982 34.9541C119.963 34.9248 119.851 34.7343 119.646 34.3828C119.45 34.0312 119.235 33.4795 119.001 32.7275C118.767 31.9658 118.552 30.9941 118.356 29.8125C118.171 28.6211 118.078 27.1758 118.078 25.4765V24.5244C116.994 24.5244 115.905 24.5341 114.812 24.5537C113.718 24.5732 112.653 24.5976 111.618 24.6269C110.593 24.6562 109.606 24.6904 108.659 24.7295C107.722 24.7588 106.857 24.7881 106.066 24.8174C105.881 26.1748 105.593 27.4541 105.202 28.6552C104.821 29.8564 104.27 30.9111 103.547 31.8193C102.834 32.7177 101.921 33.4306 100.808 33.958C99.6943 34.4756 98.3223 34.7343 96.6914 34.7343C95.832 34.7343 94.9971 34.6416 94.1865 34.456C93.3857 34.2802 92.6387 34.0312 91.9453 33.709C91.252 33.3769 90.627 32.9814 90.0703 32.5224C89.5137 32.0634 89.0596 31.5605 88.708 31.0136C88.6494 30.9258 88.6201 30.8281 88.6201 30.7207C88.6201 30.5742 88.6689 30.4472 88.7666 30.3398C88.874 30.2226 89.0107 30.164 89.1768 30.164C89.2646 30.164 89.3525 30.1884 89.4404 30.2373C89.5283 30.2763 89.5967 30.3349 89.6455 30.4131C89.9482 30.8916 90.3389 31.3261 90.8174 31.7168C91.3057 32.1074 91.8574 32.4443 92.4727 32.7275C93.0879 33.0107 93.752 33.2304 94.4648 33.3867C95.1875 33.5429 95.9346 33.6211 96.7061 33.6211C98.1416 33.6211 99.3477 33.3965 100.324 32.9472C101.301 32.4883 102.097 31.8633 102.712 31.0722C103.337 30.2812 103.815 29.3584 104.147 28.3037C104.489 27.2392 104.743 26.0966 104.909 24.8759C103.972 24.9248 103.229 24.9638 102.683 24.9931C102.136 25.0224 101.853 25.0371 101.833 25.0371C101.687 25.0371 101.55 24.9931 101.423 24.9052C101.306 24.8076 101.247 24.6758 101.247 24.5097C101.247 24.3535 101.291 24.2216 101.379 24.1142C101.477 24.0068 101.604 23.9433 101.76 23.9238C101.779 23.9238 102.082 23.9091 102.668 23.8799C103.254 23.8506 104.045 23.8115 105.041 23.7627C105.119 23.0107 105.178 22.2539 105.217 21.4922C105.266 20.7207 105.31 19.9443 105.349 19.1631C105.368 18.665 105.402 18.1865 105.451 17.7275C105.51 17.2588 105.578 16.834 105.656 16.4531C105.432 16.5019 105.178 16.5459 104.895 16.5849C104.621 16.6142 104.348 16.6289 104.074 16.6289C103.215 16.6289 102.37 16.5605 101.54 16.4238C100.71 16.2871 99.875 16.1406 99.0352 15.9843C98.2051 15.8183 97.3652 15.667 96.5156 15.5302C95.6758 15.3935 94.8164 15.3252 93.9375 15.3252C93.2148 15.3252 92.5361 15.4033 91.9014 15.5595C91.2764 15.706 90.7295 15.9355 90.2607 16.248C89.792 16.5605 89.4209 16.956 89.1475 17.4345C88.8838 17.9033 88.752 18.4599 88.752 19.1045C88.752 19.5146 88.8252 19.8759 88.9717 20.1884C89.1182 20.5009 89.2842 20.7646 89.4697 20.9795C89.6553 21.1943 89.8311 21.3652 89.9971 21.4922C90.1729 21.6093 90.2852 21.6826 90.334 21.7119C90.5098 21.8388 90.5977 22 90.5977 22.1953C90.5977 22.3515 90.5488 22.4834 90.4512 22.5908C90.3535 22.6884 90.2314 22.7373 90.085 22.7373C90.0166 22.7373 89.9482 22.7275 89.8799 22.708C89.8213 22.6787 89.7676 22.6494 89.7188 22.6201C89.4941 22.4834 89.2598 22.3076 89.0156 22.0927C88.7715 21.8779 88.5469 21.624 88.3418 21.331C88.1367 21.0283 87.9658 20.6914 87.8291 20.3203C87.7021 19.9492 87.6387 19.5439 87.6387 19.1045C87.6387 18.2451 87.8242 17.5078 88.1953 16.8925C88.5762 16.2675 89.0693 15.7597 89.6748 15.3691C90.2803 14.9687 90.9541 14.6758 91.6963 14.4902C92.4482 14.3047 93.2002 14.2119 93.9521 14.2119C94.8018 14.2119 95.6416 14.2851 96.4717 14.4316C97.3115 14.5683 98.1514 14.7197 98.9912 14.8857C99.8311 15.0517 100.671 15.208 101.511 15.3545C102.36 15.4912 103.225 15.5595 104.104 15.5595C104.455 15.5595 104.772 15.5498 105.056 15.5302C105.339 15.5009 105.607 15.4472 105.861 15.3691C106.037 14.7539 106.237 14.2265 106.462 13.7871C106.696 13.3379 106.94 12.9716 107.194 12.6884C107.458 12.3955 107.722 12.1806 107.985 12.0439C108.249 11.9072 108.503 11.8388 108.747 11.8388C109.069 11.8388 109.338 11.9365 109.553 12.1318C109.777 12.3271 109.89 12.581 109.89 12.8935ZM108.674 12.8789C108.596 12.8789 108.488 12.9228 108.352 13.0107C108.225 13.0888 108.083 13.2158 107.927 13.3916C107.771 13.5576 107.614 13.7724 107.458 14.0361C107.302 14.2998 107.165 14.6123 107.048 14.9736C107.37 14.8271 107.653 14.6367 107.897 14.4023C108.142 14.1679 108.337 13.9384 108.483 13.7138C108.63 13.4795 108.723 13.2841 108.762 13.1279C108.801 12.9619 108.771 12.8789 108.674 12.8789ZM137.906 30.0615C137.867 30.1396 137.784 30.3056 137.657 30.5595C137.539 30.8037 137.383 31.0869 137.188 31.4091C137.002 31.7314 136.783 32.0683 136.529 32.4199C136.275 32.7715 135.992 33.0937 135.679 33.3867C135.367 33.6797 135.03 33.9238 134.668 34.1191C134.307 34.3047 133.926 34.3974 133.526 34.3974C132.959 34.3974 132.481 34.2168 132.09 33.8554C131.709 33.4941 131.431 33.04 131.255 32.4931C130.923 33.0498 130.528 33.4941 130.069 33.8261C129.61 34.1484 129.151 34.3095 128.692 34.3095C128.33 34.3095 128.003 34.2461 127.71 34.1191C127.417 33.9824 127.168 33.7968 126.963 33.5625C126.758 33.3183 126.597 33.0351 126.48 32.7129C126.372 32.3906 126.319 32.039 126.319 31.6582C126.319 30.8965 126.446 30.2275 126.7 29.6513C126.963 29.0654 127.295 28.5771 127.696 28.1865C128.096 27.7959 128.536 27.5029 129.014 27.3076C129.502 27.1123 129.971 27.0146 130.42 27.0146C130.723 27.0146 131.001 27.0586 131.255 27.1465C131.509 27.2246 131.724 27.3125 131.9 27.4101C132.085 27.5078 132.227 27.6006 132.325 27.6884C132.422 27.7666 132.476 27.8105 132.486 27.8203C132.593 27.9472 132.647 28.0791 132.647 28.2158C132.647 28.3623 132.593 28.4941 132.486 28.6113C132.378 28.7187 132.251 28.7724 132.105 28.7724C131.949 28.7724 131.817 28.7187 131.709 28.6113C131.69 28.5918 131.646 28.5576 131.578 28.5088C131.509 28.4502 131.416 28.3916 131.299 28.333C131.182 28.2744 131.04 28.2256 130.874 28.1865C130.718 28.1377 130.537 28.1133 130.332 28.1133C130.03 28.1133 129.707 28.1816 129.366 28.3183C129.024 28.455 128.711 28.6699 128.428 28.9629C128.145 29.2461 127.906 29.6074 127.71 30.0468C127.525 30.4765 127.432 30.9892 127.432 31.5849C127.432 31.7705 127.452 31.9609 127.491 32.1562C127.53 32.3418 127.598 32.5127 127.696 32.6689C127.793 32.8252 127.925 32.9521 128.091 33.0498C128.257 33.1474 128.462 33.1963 128.706 33.1963C128.882 33.1963 129.082 33.1377 129.307 33.0205C129.541 32.9033 129.761 32.7226 129.966 32.4785C130.181 32.2343 130.371 31.9267 130.537 31.5556C130.713 31.1845 130.835 30.7451 130.904 30.2373C130.923 30.1006 130.987 29.9883 131.094 29.9004C131.202 29.8027 131.329 29.7539 131.475 29.7539C131.612 29.7539 131.729 29.8076 131.827 29.915C131.934 30.0224 131.993 30.1445 132.002 30.2812C132.012 30.4668 132.032 30.7304 132.061 31.0722C132.09 31.4043 132.154 31.7363 132.251 32.0683C132.359 32.4004 132.515 32.6884 132.72 32.9326C132.925 33.1767 133.208 33.2988 133.57 33.2988C133.804 33.2988 134.034 33.2353 134.258 33.1084C134.493 32.9814 134.717 32.8154 134.932 32.6103C135.157 32.3955 135.367 32.1562 135.562 31.8925C135.767 31.6191 135.953 31.3457 136.119 31.0722C136.285 30.7988 136.431 30.5351 136.558 30.2812C136.685 30.0273 136.792 29.8076 136.88 29.622C136.929 29.5146 136.997 29.4316 137.085 29.373C137.183 29.3144 137.286 29.2851 137.393 29.2851C137.559 29.2851 137.691 29.3486 137.788 29.4756C137.896 29.5927 137.95 29.7197 137.95 29.8564C137.95 29.9248 137.935 29.9931 137.906 30.0615ZM145.678 29.5341C145.531 30.2177 145.321 30.8574 145.048 31.4531C144.774 32.039 144.481 32.5517 144.169 32.9912C143.866 33.4306 143.558 33.7773 143.246 34.0312C142.933 34.2851 142.665 34.4218 142.44 34.4414C142.186 34.4414 141.903 34.3144 141.591 34.0605C141.288 33.8066 140.995 33.455 140.712 33.0058C140.438 32.5468 140.209 32.0049 140.023 31.3799C139.838 30.7549 139.745 30.0761 139.745 29.3437C139.745 28.6992 139.799 28.2109 139.906 27.8789C140.023 27.5468 140.096 27.3564 140.126 27.3076C140.175 27.2197 140.238 27.1513 140.316 27.1025C140.404 27.0537 140.502 27.0293 140.609 27.0293C140.775 27.0293 140.907 27.0879 141.005 27.205C141.102 27.3125 141.151 27.4345 141.151 27.5713C141.151 27.6689 141.132 27.7519 141.093 27.8203C141.083 27.8398 141.039 27.9716 140.961 28.2158C140.883 28.4599 140.844 28.8261 140.844 29.3144C140.844 29.8906 140.902 30.4228 141.019 30.9111C141.137 31.3994 141.278 31.8193 141.444 32.1709C141.61 32.5224 141.781 32.8008 141.957 33.0058C142.142 33.2011 142.294 33.2988 142.411 33.2988C142.489 33.2988 142.601 33.2256 142.748 33.0791C142.904 32.9326 143.065 32.7324 143.231 32.4785C143.407 32.2246 143.583 31.9218 143.759 31.5703C143.944 31.2187 144.11 30.8379 144.257 30.4277C144.413 30.0078 144.535 29.5683 144.623 29.1093C144.721 28.6406 144.769 28.167 144.769 27.6884C144.769 27.5908 144.764 27.498 144.755 27.4101C144.755 27.3125 144.755 27.2148 144.755 27.1172C144.755 26.9511 144.804 26.8144 144.901 26.707C145.009 26.5898 145.145 26.5312 145.311 26.5312C145.438 26.5312 145.551 26.5703 145.648 26.6484C145.756 26.7265 145.824 26.834 145.853 26.9707C145.853 26.9609 145.873 27.039 145.912 27.205C145.951 27.3711 146.014 27.5859 146.102 27.8496C146.2 28.1035 146.317 28.3818 146.454 28.6845C146.6 28.9873 146.771 29.2705 146.967 29.5341C147.172 29.7881 147.406 30.0029 147.67 30.1787C147.933 30.3545 148.236 30.4424 148.578 30.4424C148.763 30.4424 148.925 30.4033 149.061 30.3252C149.198 30.247 149.31 30.1591 149.398 30.0615C149.486 29.9638 149.55 29.8711 149.589 29.7832C149.637 29.6953 149.662 29.6465 149.662 29.6367C149.701 29.5293 149.764 29.4463 149.852 29.3877C149.95 29.3193 150.057 29.2851 150.175 29.2851C150.331 29.2851 150.463 29.3437 150.57 29.4609C150.678 29.5683 150.731 29.6953 150.731 29.8418C150.731 29.9101 150.717 29.9785 150.687 30.0468C150.629 30.1836 150.541 30.3398 150.424 30.5156C150.316 30.6914 150.175 30.8574 149.999 31.0136C149.823 31.1699 149.613 31.3017 149.369 31.4091C149.135 31.5068 148.871 31.5556 148.578 31.5556C148.236 31.5556 147.919 31.497 147.626 31.3799C147.333 31.2529 147.064 31.0966 146.82 30.9111C146.586 30.7158 146.371 30.5009 146.176 30.2666C145.98 30.0224 145.814 29.7783 145.678 29.5341ZM154.284 32.5371C154.489 32.8203 154.753 33.0498 155.075 33.2256C155.398 33.3916 155.793 33.4746 156.262 33.4746C156.74 33.4746 157.175 33.3623 157.566 33.1377C157.956 32.9033 158.313 32.6006 158.635 32.2295C158.957 31.8584 159.245 31.4433 159.499 30.9843C159.753 30.5254 159.983 30.0664 160.188 29.6074C160.237 29.5 160.305 29.4218 160.393 29.373C160.481 29.3144 160.578 29.2851 160.686 29.2851C160.852 29.2851 160.984 29.3437 161.081 29.4609C161.189 29.5781 161.242 29.705 161.242 29.8418C161.242 29.8906 161.238 29.9345 161.228 29.9736C161.218 30.0029 161.203 30.0371 161.184 30.0761C160.51 31.5605 159.773 32.6787 158.972 33.4306C158.181 34.1826 157.282 34.5683 156.277 34.5879C155.632 34.5879 155.075 34.4609 154.607 34.207C154.138 33.9629 153.752 33.6455 153.449 33.2549C153.147 32.8545 152.922 32.4052 152.776 31.9072C152.629 31.4091 152.556 30.9111 152.556 30.4131C152.556 29.915 152.614 29.456 152.732 29.0361C152.859 28.6162 153.034 28.25 153.259 27.9375C153.493 27.625 153.767 27.3808 154.079 27.205C154.402 27.0293 154.753 26.9414 155.134 26.9414C155.359 26.9414 155.578 26.9902 155.793 27.0879C156.018 27.1758 156.218 27.3076 156.394 27.4834C156.57 27.6494 156.711 27.8545 156.819 28.0986C156.926 28.3427 156.98 28.6211 156.98 28.9336C156.98 29.334 156.911 29.7099 156.775 30.0615C156.638 30.4131 156.447 30.7402 156.203 31.0429C155.969 31.3457 155.686 31.624 155.354 31.8779C155.022 32.1318 154.665 32.3515 154.284 32.5371ZM153.845 31.5849C154.148 31.458 154.421 31.2968 154.665 31.1015C154.919 30.9062 155.134 30.6914 155.31 30.457C155.486 30.2226 155.622 29.9785 155.72 29.7246C155.818 29.4609 155.866 29.1972 155.866 28.9336C155.866 28.6406 155.793 28.4209 155.647 28.2744C155.5 28.1181 155.329 28.04 155.134 28.04C154.87 28.04 154.646 28.1133 154.46 28.2597C154.275 28.4062 154.123 28.5966 154.006 28.831C153.889 29.0654 153.801 29.3291 153.742 29.622C153.694 29.9052 153.669 30.1884 153.669 30.4716C153.669 30.6474 153.684 30.833 153.713 31.0283C153.752 31.2236 153.796 31.4091 153.845 31.5849ZM197.558 13.7578C197.694 13.7578 197.821 13.8115 197.938 13.9189C198.065 14.0166 198.129 14.1484 198.129 14.3144C198.129 14.5195 198.036 14.6758 197.851 14.7832C197.841 14.7929 197.704 14.8857 197.44 15.0615C197.187 15.2373 196.884 15.5107 196.532 15.8818C197.265 15.9697 198.012 16.0136 198.773 16.0136C199.516 16.0136 200.189 15.9648 200.795 15.8672C201.41 15.7597 201.957 15.6181 202.436 15.4424C202.924 15.2568 203.344 15.042 203.695 14.7978C204.057 14.5537 204.354 14.2851 204.589 13.9922C204.647 13.9238 204.716 13.8701 204.794 13.831C204.872 13.7822 204.955 13.7578 205.043 13.7578C205.199 13.7578 205.326 13.8164 205.424 13.9336C205.531 14.0508 205.585 14.1777 205.585 14.3144C205.585 14.4511 205.551 14.5586 205.482 14.6367C205.248 14.9492 204.936 15.2568 204.545 15.5595C204.154 15.8525 203.681 16.1162 203.124 16.3506C202.567 16.5849 201.928 16.7754 201.205 16.9218C200.482 17.0586 199.677 17.1269 198.788 17.1269C198.28 17.1269 197.772 17.1074 197.265 17.0683C196.757 17.0195 196.249 16.956 195.741 16.8779C195.517 17.2002 195.307 17.5615 195.111 17.9619C194.926 18.3623 194.774 18.8017 194.657 19.2802C194.452 20.1006 194.335 20.9697 194.306 21.8877C194.286 22.8056 194.267 23.7431 194.247 24.7002C194.237 25.6474 194.193 26.5947 194.115 27.542C194.037 28.4795 193.852 29.3877 193.559 30.2666C193.334 30.9306 193.031 31.5459 192.65 32.1123C192.279 32.6787 191.82 33.1718 191.273 33.5918C190.736 34.0019 190.116 34.3242 189.413 34.5586C188.72 34.8027 187.938 34.9248 187.069 34.9248C185.644 34.9248 184.354 34.6416 183.202 34.0752C182.05 33.5088 181.049 32.6152 180.199 31.3945C180.17 31.3457 180.131 31.2773 180.082 31.1894C180.033 31.1015 180.009 31.0136 180.009 30.9258C180.009 30.789 180.058 30.6572 180.155 30.5302C180.253 30.4033 180.39 30.3398 180.565 30.3398C180.673 30.3398 180.771 30.3691 180.858 30.4277C180.946 30.4765 181.015 30.54 181.063 30.6181C181.776 31.7119 182.611 32.5224 183.568 33.0498C184.525 33.5674 185.688 33.8261 187.055 33.8261C187.777 33.8261 188.427 33.7383 189.003 33.5625C189.579 33.3769 190.087 33.1181 190.526 32.7861C190.976 32.4443 191.361 32.0293 191.684 31.541C192.006 31.0527 192.274 30.4961 192.489 29.8711C192.724 29.1875 192.87 28.4013 192.929 27.5127C192.997 26.6142 193.041 25.6816 193.061 24.7148C193.08 23.7383 193.114 22.7617 193.163 21.7851C193.222 20.8086 193.358 19.8857 193.573 19.0166C193.681 18.5576 193.822 18.1328 193.998 17.7422C194.174 17.3515 194.359 16.9902 194.555 16.6582C193.246 16.3945 191.942 16.0625 190.644 15.6621C189.354 15.2519 188.09 14.8613 186.85 14.4902C185.619 14.1093 184.428 13.7822 183.275 13.5088C182.133 13.2353 181.054 13.0986 180.038 13.0986C179.11 13.0986 178.251 13.2304 177.46 13.4941C176.679 13.7578 176 14.1289 175.424 14.6074C174.857 15.0859 174.413 15.6621 174.091 16.3359C173.778 17.0097 173.622 17.7568 173.622 18.5771C173.622 19.1728 173.725 19.7197 173.93 20.2177C174.145 20.7158 174.438 21.1504 174.809 21.5215C175.18 21.8828 175.619 22.166 176.127 22.3711C176.635 22.5761 177.191 22.6787 177.797 22.6787C178.432 22.6787 178.998 22.5859 179.496 22.4004C179.994 22.205 180.434 21.9658 180.814 21.6826C181.195 21.3994 181.518 21.0918 181.781 20.7597C182.055 20.4277 182.274 20.1201 182.44 19.8369C182.616 19.5439 182.743 19.3047 182.821 19.1191C182.909 18.9238 182.953 18.8261 182.953 18.8261C182.992 18.7187 183.061 18.6308 183.158 18.5625C183.256 18.4941 183.363 18.4599 183.48 18.4599C183.646 18.4599 183.778 18.5185 183.876 18.6357C183.983 18.7431 184.037 18.8701 184.037 19.0166C184.037 19.0459 184.032 19.0752 184.022 19.1045C184.022 19.124 184.018 19.1484 184.008 19.1777C183.998 19.1972 183.944 19.3291 183.847 19.5732C183.749 19.8076 183.598 20.0957 183.393 20.4375C183.188 20.7695 182.924 21.1308 182.602 21.5215C182.279 21.9121 181.889 22.2783 181.43 22.6201C180.971 22.9521 180.438 23.2304 179.833 23.455C179.237 23.6699 178.554 23.7773 177.782 23.7773C177.04 23.7773 176.347 23.6455 175.702 23.3818C175.067 23.1181 174.511 22.7568 174.032 22.2978C173.563 21.8388 173.192 21.292 172.919 20.6572C172.655 20.0224 172.523 19.3291 172.523 18.5771C172.523 17.581 172.714 16.6826 173.095 15.8818C173.476 15.0713 174.003 14.3779 174.677 13.8017C175.351 13.2256 176.146 12.7812 177.064 12.4687C177.982 12.1562 178.979 12 180.053 12C180.834 12 181.62 12.0683 182.411 12.205C183.202 12.3418 184.003 12.5224 184.813 12.747C185.634 12.9716 186.464 13.2207 187.304 13.4941C188.144 13.7675 188.993 14.0459 189.853 14.3291C190.722 14.6025 191.601 14.8613 192.489 15.1054C193.388 15.3496 194.301 15.5498 195.229 15.706C195.473 15.4033 195.712 15.1347 195.946 14.9004C196.19 14.666 196.405 14.4756 196.591 14.3291C196.786 14.1728 196.947 14.0556 197.074 13.9775C197.201 13.8896 197.274 13.8408 197.294 13.831C197.392 13.7822 197.479 13.7578 197.558 13.7578ZM204.07 22.6494C204.07 23.0205 203.938 23.3379 203.674 23.6015C203.42 23.8554 203.108 23.9824 202.737 23.9824C202.366 23.9824 202.048 23.8554 201.785 23.6015C201.531 23.3379 201.404 23.0205 201.404 22.6494C201.404 22.4638 201.438 22.2929 201.506 22.1367C201.575 21.9707 201.667 21.8291 201.785 21.7119C201.912 21.5849 202.053 21.4873 202.209 21.4189C202.375 21.3506 202.551 21.3164 202.737 21.3164C202.922 21.3164 203.093 21.3506 203.249 21.4189C203.415 21.4873 203.557 21.5849 203.674 21.7119C203.801 21.8291 203.899 21.9707 203.967 22.1367C204.036 22.2929 204.07 22.4638 204.07 22.6494ZM201.697 31.2334C201.697 29.8271 201.785 28.4258 201.96 27.0293C201.98 26.8925 202.038 26.7754 202.136 26.6777C202.244 26.5703 202.38 26.5166 202.546 26.5166C202.693 26.5166 202.815 26.5752 202.913 26.6924C203.01 26.7998 203.059 26.9267 203.059 27.0732C203.059 27.1318 203.044 27.3076 203.015 27.6006C202.996 27.8935 202.966 28.2451 202.927 28.6552C202.898 29.0556 202.869 29.4853 202.839 29.9443C202.82 30.3935 202.81 30.8086 202.81 31.1894C202.81 31.707 202.859 32.1269 202.956 32.4492C203.064 32.7617 203.196 33.0058 203.352 33.1816C203.518 33.3574 203.689 33.4746 203.865 33.5332C204.05 33.5918 204.226 33.6211 204.392 33.6211C204.665 33.6211 204.949 33.5234 205.242 33.3281C205.535 33.1328 205.832 32.8593 206.135 32.5078C206.448 32.1562 206.76 31.7363 207.073 31.248C207.385 30.75 207.693 30.1982 207.996 29.5927C208.044 29.4951 208.113 29.4218 208.201 29.373C208.288 29.3144 208.386 29.2851 208.494 29.2851C208.65 29.2851 208.777 29.3437 208.874 29.4609C208.982 29.5781 209.036 29.705 209.036 29.8418C209.036 29.9394 209.016 30.0224 208.977 30.0908C208.86 30.3154 208.713 30.5888 208.538 30.9111C208.362 31.2334 208.162 31.5654 207.937 31.9072C207.712 32.249 207.463 32.5908 207.19 32.9326C206.926 33.2646 206.643 33.5674 206.34 33.8408C206.038 34.1045 205.72 34.3193 205.388 34.4853C205.056 34.6513 204.719 34.7343 204.377 34.7343C203.938 34.7343 203.552 34.6416 203.22 34.456C202.888 34.2705 202.605 34.0215 202.371 33.709C202.146 33.3965 201.975 33.0302 201.858 32.6103C201.75 32.1806 201.697 31.7216 201.697 31.2334ZM203.249 22.6494C203.249 22.5127 203.196 22.3955 203.088 22.2978C202.991 22.1904 202.873 22.1367 202.737 22.1367C202.6 22.1367 202.483 22.1904 202.385 22.2978C202.288 22.3955 202.239 22.5127 202.239 22.6494C202.239 22.7861 202.288 22.9033 202.385 23.0009C202.483 23.0986 202.6 23.1474 202.737 23.1474C202.873 23.1474 202.991 23.0986 203.088 23.0009C203.196 22.9033 203.249 22.7861 203.249 22.6494ZM214.215 32.8447C214.361 32.5517 214.547 32.1904 214.771 31.7607C215.006 31.3213 215.245 30.8818 215.489 30.4424C215.743 30.0029 215.987 29.5879 216.221 29.1972C216.466 28.8066 216.671 28.5088 216.837 28.3037C217.12 27.9619 217.413 27.7177 217.716 27.5713C218.018 27.4248 218.297 27.3515 218.551 27.3515C218.804 27.3515 219.019 27.4052 219.195 27.5127C219.381 27.6201 219.532 27.7666 219.649 27.9521C219.766 28.1279 219.854 28.3379 219.913 28.582C219.971 28.8164 220.001 29.0703 220.001 29.3437C220.001 29.5 219.991 29.705 219.971 29.959C219.962 30.2129 219.947 30.4863 219.928 30.7793C219.918 31.0722 219.903 31.375 219.884 31.6875C219.874 32 219.864 32.2929 219.854 32.5664C220.001 32.2734 220.167 31.9511 220.352 31.5996C220.538 31.2383 220.723 30.8818 220.909 30.5302C221.104 30.1787 221.29 29.8515 221.466 29.5488C221.641 29.2363 221.803 28.9824 221.949 28.7871C222.369 28.2109 222.76 27.8252 223.121 27.6299C223.492 27.4345 223.819 27.3369 224.102 27.3369C224.434 27.3369 224.708 27.4004 224.923 27.5273C225.137 27.6445 225.304 27.8008 225.421 27.9961C225.548 28.1816 225.636 28.3916 225.684 28.6259C225.733 28.8603 225.758 29.0849 225.758 29.2998C225.758 29.6318 225.733 29.9785 225.684 30.3398C225.636 30.7011 225.611 31.1308 225.611 31.6289C225.611 31.834 225.621 32.039 225.64 32.2441C225.66 32.4492 225.699 32.6299 225.758 32.7861C225.826 32.9424 225.929 33.0693 226.065 33.167C226.202 33.2646 226.387 33.3134 226.622 33.3134C226.876 33.3134 227.125 33.25 227.369 33.123C227.613 32.9863 227.847 32.8105 228.072 32.5957C228.297 32.3808 228.507 32.1367 228.702 31.8633C228.907 31.5898 229.093 31.3164 229.259 31.0429C229.425 30.7695 229.571 30.5107 229.698 30.2666C229.825 30.0127 229.928 29.7978 230.006 29.622C230.054 29.5146 230.123 29.4316 230.211 29.373C230.299 29.3144 230.396 29.2851 230.504 29.2851C230.67 29.2851 230.802 29.3486 230.899 29.4756C231.007 29.5927 231.06 29.7197 231.06 29.8564C231.06 29.9248 231.046 29.9931 231.016 30.0615C230.977 30.1396 230.899 30.3056 230.782 30.5595C230.665 30.8037 230.509 31.0869 230.313 31.4091C230.118 31.7216 229.888 32.0537 229.625 32.4052C229.371 32.7568 229.088 33.084 228.775 33.3867C228.463 33.6797 228.126 33.9238 227.764 34.1191C227.403 34.3047 227.022 34.3974 226.622 34.3974C226.192 34.3974 225.841 34.3193 225.567 34.1631C225.304 34.0166 225.089 33.8164 224.923 33.5625C224.766 33.3086 224.659 33.0156 224.6 32.6836C224.542 32.3515 224.512 32.0049 224.512 31.6435C224.512 31.165 224.537 30.7256 224.586 30.3252C224.635 29.915 224.659 29.5976 224.659 29.373C224.659 29.1289 224.635 28.9433 224.586 28.8164C224.547 28.6894 224.493 28.6015 224.425 28.5527C224.366 28.4941 224.307 28.4648 224.249 28.4648C224.19 28.455 224.146 28.4502 224.117 28.4502C223.883 28.4502 223.634 28.582 223.37 28.8457C223.116 29.0996 222.852 29.4414 222.579 29.8711C222.305 30.3008 222.022 30.789 221.729 31.3359C221.446 31.8828 221.158 32.4394 220.865 33.0058C220.699 33.3183 220.557 33.5771 220.44 33.7822C220.333 33.9873 220.225 34.1484 220.118 34.2656C220.02 34.3828 219.923 34.4658 219.825 34.5146C219.727 34.5634 219.62 34.5879 219.503 34.5879C219.249 34.5879 219.054 34.5 218.917 34.3242C218.79 34.1484 218.726 33.9189 218.726 33.6357C218.726 33.4892 218.731 33.2939 218.741 33.0498C218.751 32.8056 218.761 32.5371 218.77 32.2441C218.78 31.9511 218.795 31.6484 218.814 31.3359C218.834 31.0234 218.848 30.7256 218.858 30.4424C218.868 30.1494 218.878 29.8906 218.887 29.666C218.897 29.4414 218.902 29.2705 218.902 29.1533C218.902 28.8994 218.858 28.7187 218.77 28.6113C218.682 28.4941 218.58 28.4355 218.463 28.4355C218.355 28.4355 218.233 28.4746 218.096 28.5527C217.97 28.6308 217.818 28.7822 217.642 29.0068C217.506 29.1826 217.33 29.4414 217.115 29.7832C216.91 30.1152 216.69 30.4863 216.456 30.8965C216.221 31.3066 215.987 31.7265 215.753 32.1562C215.528 32.5859 215.333 32.9716 215.167 33.3134C214.962 33.7236 214.757 34.0019 214.552 34.1484C214.346 34.3047 214.146 34.3828 213.951 34.3828C213.668 34.3828 213.458 34.2998 213.321 34.1338C213.184 33.958 213.116 33.7285 213.116 33.4453C213.116 33.416 213.121 33.2402 213.131 32.9179C213.15 32.5957 213.17 32.205 213.189 31.7461C213.209 31.2773 213.228 30.7793 213.248 30.2519C213.277 29.7246 213.302 29.2314 213.321 28.7724C213.331 28.5283 213.321 28.3037 213.292 28.0986C213.262 27.8935 213.223 27.7715 213.175 27.7324C213.096 27.7519 212.94 27.9326 212.706 28.2744C212.481 28.6162 212.193 29.2119 211.842 30.0615C211.793 30.1689 211.72 30.2519 211.622 30.3105C211.524 30.3691 211.422 30.3984 211.314 30.3984C211.148 30.3984 211.016 30.3447 210.919 30.2373C210.821 30.1201 210.772 29.9883 210.772 29.8418C210.772 29.7734 210.787 29.7002 210.816 29.622C211.256 28.5771 211.676 27.8105 212.076 27.3222C212.476 26.8242 212.867 26.5752 213.248 26.5752C213.472 26.5752 213.658 26.6289 213.804 26.7363C213.961 26.834 214.083 26.9658 214.171 27.1318C214.259 27.2881 214.322 27.4687 214.361 27.6738C214.4 27.8789 214.42 28.0791 214.42 28.2744C214.42 29.1435 214.395 29.9394 214.346 30.6621C214.307 31.3847 214.263 32.1123 214.215 32.8447ZM234.628 32.5371C234.833 32.8203 235.097 33.0498 235.419 33.2256C235.741 33.3916 236.137 33.4746 236.606 33.4746C237.084 33.4746 237.519 33.3623 237.909 33.1377C238.3 32.9033 238.656 32.6006 238.979 32.2295C239.301 31.8584 239.589 31.4433 239.843 30.9843C240.097 30.5254 240.326 30.0664 240.531 29.6074C240.58 29.5 240.649 29.4218 240.737 29.373C240.824 29.3144 240.922 29.2851 241.029 29.2851C241.196 29.2851 241.327 29.3437 241.425 29.4609C241.532 29.5781 241.586 29.705 241.586 29.8418C241.586 29.8906 241.581 29.9345 241.571 29.9736C241.562 30.0029 241.547 30.0371 241.528 30.0761C240.854 31.5605 240.116 32.6787 239.316 33.4306C238.525 34.1826 237.626 34.5683 236.62 34.5879C235.976 34.5879 235.419 34.4609 234.95 34.207C234.482 33.9629 234.096 33.6455 233.793 33.2549C233.49 32.8545 233.266 32.4052 233.119 31.9072C232.973 31.4091 232.9 30.9111 232.9 30.4131C232.9 29.915 232.958 29.456 233.075 29.0361C233.202 28.6162 233.378 28.25 233.603 27.9375C233.837 27.625 234.111 27.3808 234.423 27.205C234.745 27.0293 235.097 26.9414 235.478 26.9414C235.702 26.9414 235.922 26.9902 236.137 27.0879C236.362 27.1758 236.562 27.3076 236.738 27.4834C236.913 27.6494 237.055 27.8545 237.162 28.0986C237.27 28.3427 237.323 28.6211 237.323 28.9336C237.323 29.334 237.255 29.7099 237.118 30.0615C236.982 30.4131 236.791 30.7402 236.547 31.0429C236.313 31.3457 236.029 31.624 235.697 31.8779C235.365 32.1318 235.009 32.3515 234.628 32.5371ZM234.189 31.5849C234.491 31.458 234.765 31.2968 235.009 31.1015C235.263 30.9062 235.478 30.6914 235.654 30.457C235.829 30.2226 235.966 29.9785 236.064 29.7246C236.161 29.4609 236.21 29.1972 236.21 28.9336C236.21 28.6406 236.137 28.4209 235.99 28.2744C235.844 28.1181 235.673 28.04 235.478 28.04C235.214 28.04 234.989 28.1133 234.804 28.2597C234.618 28.4062 234.467 28.5966 234.35 28.831C234.233 29.0654 234.145 29.3291 234.086 29.622C234.037 29.9052 234.013 30.1884 234.013 30.4716C234.013 30.6474 234.028 30.833 234.057 31.0283C234.096 31.2236 234.14 31.4091 234.189 31.5849Z" fill="black"/>
<defs>
<filter id="filter0_i" x="0" y="0.141052" width="272.081" height="47.012" filterUnits="userSpaceOnUse" color-interpolation-filters="sRGB">
<feFlood flood-opacity="0" result="BackgroundImageFix"/>
<feBlend mode="normal" in="SourceGraphic" in2="BackgroundImageFix" result="shape"/>
<feColorMatrix in="SourceAlpha" type="matrix" values="0 0 0 0 0 0 0 0 0 0 0 0 0 0 0 0 0 0 127 0" result="hardAlpha"/>
<feOffset dy="3"/>
<feGaussianBlur stdDeviation="9.5"/>
<feComposite in2="hardAlpha" operator="arithmetic" k2="-1" k3="1"/>
<feColorMatrix type="matrix" values="0 0 0 0 0.991129 0 0 0 0 0.400538 0 0 0 0 0.400538 0 0 0 0.65 0"/>
<feBlend mode="normal" in2="shape" result="effect1_innerShadow"/>
</filter>
</defs>
</svg>
