<svg width="218" height="42" viewBox="0 0 218 42" fill="none" xmlns="http://www.w3.org/2000/svg">
<g filter="url(#filter0_i)">
<path d="M0 0L191.803 1.72027L201.36 3.09649L211.576 5.84892L197.735 4.81675L212.235 9.28946L197.076 6.53702L212.235 10.6657L197.735 8.72646L211.576 11.3538L197.076 10.6657L217.838 12.73H197.076L212.235 15.8265L203.008 16.4051L211.576 18.2349H203.008L211.576 20.9873H204.326L214.213 23.0516H194.769L211.576 26.1481L194.769 25.46L214.213 28.2124L194.769 27.5243L214.213 29.9327H196.087L213.224 31.997L196.417 32.3411L214.213 34.7494L176.643 40.2824L188.178 38.8781L181.587 40.2543L176.643 40.2824L0 41.2865V0Z" fill="#D0F200"/>
</g>
<path d="M196.763 16.6053L197.369 16.7349H197.076V19.4873H194.769V21.5516L194.497 24.5268L194.774 24.5778L194.559 26.9452L194.747 26.9718L194.585 29.0129L196.041 29.1934L195.908 31.4219L196.35 31.4752L196.216 33.8275L203.492 34.8122L176.529 38.783L1.5 39.7779V1.51351L191.689 3.21931L197.702 4.0852L197.512 5.09166L197.344 5.06115L196.682 7.98431L197.766 8.27954L197.619 9.18974L197.147 9.16736L196.927 12.1583L196.981 12.1637L196.776 14.1996L197.255 14.2976L196.763 16.6053Z" stroke="#D0F200" stroke-width="3"/>
<path d="M55.8926 14.1328C55.4727 14.748 55.0039 15.4854 54.4863 16.3447C53.9688 17.2041 53.417 18.166 52.8311 19.2305C52.333 20.1191 51.8398 21.0664 51.3516 22.0723C50.873 23.0684 50.4141 24.0596 49.9746 25.0459C49.5352 26.0225 49.1299 26.9648 48.7588 27.873C48.3877 28.7715 48.0654 29.5674 47.792 30.2607C47.5186 30.9443 47.3037 31.4961 47.1475 31.916C46.9912 32.3262 46.9131 32.5361 46.9131 32.5459C46.8154 32.79 46.6396 32.9121 46.3857 32.9121C46.2588 32.9121 46.1465 32.873 46.0488 32.7949C45.9512 32.707 45.8877 32.5996 45.8584 32.4727C45.8584 32.4629 45.8096 32.2578 45.7119 31.8574C45.624 31.4473 45.502 30.9053 45.3457 30.2314C45.1895 29.5479 45.0088 28.7666 44.8037 27.8877C44.6084 26.999 44.3984 26.0762 44.1738 25.1191C43.959 24.1523 43.7393 23.1758 43.5146 22.1895C43.29 21.2031 43.0801 20.2656 42.8848 19.377C42.2305 21.2227 41.5713 22.8584 40.9072 24.2842C40.2529 25.7002 39.5791 26.9355 38.8857 27.9902C38.1924 29.0352 37.4746 29.9141 36.7324 30.627C36 31.3398 35.2285 31.916 34.418 32.3555C33.6172 32.7852 32.7725 33.0928 31.8838 33.2783C31.0049 33.4639 30.0723 33.5566 29.0859 33.5566C28.5781 33.5566 28.0361 33.498 27.46 33.3809C26.8838 33.2734 26.3125 33.1025 25.7461 32.8682C25.1797 32.6338 24.6377 32.3408 24.1201 31.9893C23.6025 31.6377 23.1436 31.2227 22.7432 30.7441C22.3428 30.2559 22.0254 29.709 21.791 29.1035C21.5566 28.4883 21.4395 27.8047 21.4395 27.0527C21.4395 26.2617 21.6055 25.5391 21.9375 24.8848C22.2695 24.2207 22.7188 23.6543 23.2852 23.1855C23.8516 22.707 24.5059 22.3359 25.248 22.0723C26 21.8086 26.791 21.6768 27.6211 21.6768C28.2266 21.6768 28.7686 21.7305 29.2471 21.8379C29.7354 21.9355 30.165 22.0625 30.5361 22.2188C30.9072 22.375 31.2246 22.5459 31.4883 22.7314C31.752 22.917 31.9717 23.0879 32.1475 23.2441C32.3232 23.4004 32.4502 23.5371 32.5283 23.6543C32.6064 23.7617 32.6504 23.8154 32.6602 23.8154C32.7188 23.9229 32.748 24.0254 32.748 24.123C32.748 24.2598 32.6943 24.3867 32.5869 24.5039C32.4893 24.6211 32.3574 24.6797 32.1914 24.6797C31.9961 24.6797 31.8398 24.5967 31.7227 24.4307C31.7129 24.4209 31.6348 24.333 31.4883 24.167C31.3418 23.9912 31.1025 23.8008 30.7705 23.5957C30.4385 23.3906 30.0088 23.2051 29.4814 23.0391C28.9639 22.873 28.3291 22.79 27.5771 22.79C26.8936 22.79 26.2441 22.8975 25.6289 23.1123C25.0234 23.3174 24.4912 23.6104 24.0322 23.9912C23.583 24.3721 23.2217 24.8262 22.9482 25.3535C22.6846 25.8711 22.5527 26.4424 22.5527 27.0674C22.5527 27.6826 22.6553 28.2441 22.8604 28.752C23.0654 29.2598 23.3389 29.7139 23.6807 30.1143C24.0225 30.5146 24.418 30.8613 24.8672 31.1543C25.3164 31.4473 25.7852 31.6914 26.2734 31.8867C26.7617 32.0723 27.25 32.2139 27.7383 32.3115C28.2363 32.3994 28.7051 32.4434 29.1445 32.4434C29.8867 32.4434 30.6094 32.3896 31.3125 32.2822C32.0254 32.165 32.7236 31.9502 33.4072 31.6377C34.1006 31.3252 34.7793 30.8955 35.4434 30.3486C36.1074 29.8018 36.7666 29.0889 37.4209 28.21C38.0752 27.3311 38.7197 26.2715 39.3545 25.0312C39.999 23.791 40.6436 22.3262 41.2881 20.6367C41.4834 20.1289 41.6738 19.582 41.8594 18.9961C42.0449 18.4102 42.2354 17.8193 42.4307 17.2236C42.2646 16.3643 42.1426 15.6318 42.0645 15.0264C41.9961 14.4209 41.9619 13.918 41.9619 13.5176C41.9619 13.0879 41.9961 12.7461 42.0645 12.4922C42.1328 12.2383 42.2207 12.0479 42.3281 11.9209C42.4355 11.7842 42.5527 11.7012 42.6797 11.6719C42.8066 11.6328 42.9287 11.6133 43.0459 11.6133C43.1436 11.6133 43.251 11.6328 43.3682 11.6719C43.4951 11.7109 43.6074 11.7988 43.7051 11.9355C43.8125 12.0625 43.9004 12.2529 43.9688 12.5068C44.0371 12.7607 44.0713 13.1025 44.0713 13.5322C44.0713 14.001 44.0273 14.543 43.9395 15.1582C43.8516 15.7734 43.7197 16.4521 43.5439 17.1943C43.6709 17.79 43.8174 18.4541 43.9834 19.1865C44.1494 19.9189 44.3203 20.6807 44.4961 21.4717C44.6719 22.2529 44.8525 23.0537 45.0381 23.874C45.2236 24.6943 45.4043 25.4951 45.5801 26.2764C45.7559 27.0576 45.9219 27.8047 46.0781 28.5176C46.2441 29.2305 46.3955 29.875 46.5322 30.4512C46.7959 29.7871 47.1182 28.9863 47.499 28.0488C47.8799 27.1016 48.3047 26.1006 48.7734 25.0459C49.2422 23.9814 49.7354 22.9023 50.2529 21.8086C50.7803 20.7051 51.3174 19.665 51.8643 18.6885C52.6357 17.3018 53.3438 16.1152 53.9883 15.1289C54.6328 14.1328 55.1895 13.3125 55.6582 12.668C56.127 12.0234 56.4932 11.5498 56.7568 11.2471C57.0303 10.9346 57.1768 10.7637 57.1963 10.7344C57.3037 10.627 57.4355 10.5732 57.5918 10.5732C57.7578 10.5732 57.8896 10.6318 57.9873 10.749C58.0947 10.8564 58.1484 10.9834 58.1484 11.1299C58.1484 11.1982 58.1338 11.2666 58.1045 11.335C58.1045 11.3447 58.0459 11.4912 57.9287 11.7744C57.8213 12.0479 57.6797 12.4287 57.5039 12.917C57.3379 13.3955 57.1523 13.9619 56.9473 14.6162C56.7422 15.2607 56.542 15.959 56.3467 16.7109C56.1514 17.4531 55.9756 18.2344 55.8193 19.0547C55.6729 19.8652 55.5654 20.6758 55.4971 21.4863C55.4678 21.8574 55.4434 22.248 55.4238 22.6582C55.4043 23.0586 55.3945 23.4639 55.3945 23.874C55.3945 24.5186 55.4238 25.168 55.4824 25.8223C55.541 26.4766 55.6387 27.1064 55.7754 27.7119C55.9121 28.3174 56.0977 28.8887 56.332 29.4258C56.5664 29.9531 56.8545 30.417 57.1963 30.8174C57.5381 31.2178 57.9434 31.54 58.4121 31.7842C58.8906 32.0283 59.4424 32.1602 60.0674 32.1797C60.2236 32.1895 60.3457 32.2578 60.4336 32.3848C60.5312 32.502 60.5801 32.6289 60.5801 32.7656C60.5801 32.9023 60.5264 33.0244 60.4189 33.1318C60.3115 33.2393 60.1846 33.293 60.0381 33.293C59.8818 33.293 59.7256 33.2783 59.5693 33.249C58.8662 33.1514 58.2461 32.9512 57.709 32.6484C57.1719 32.3359 56.708 31.9551 56.3174 31.5059C55.9268 31.0469 55.5996 30.5293 55.3359 29.9531C55.082 29.3672 54.877 28.7422 54.7207 28.0781C54.5645 27.4141 54.4521 26.7256 54.3838 26.0127C54.3252 25.29 54.2959 24.5625 54.2959 23.8301C54.2959 22.9609 54.3398 22.0918 54.4277 21.2227C54.5156 20.3535 54.6328 19.5088 54.7793 18.6885C54.9258 17.8584 55.0967 17.0576 55.292 16.2861C55.4873 15.5146 55.6875 14.7969 55.8926 14.1328ZM69.143 31.3594C68.8012 31.916 68.4008 32.3555 67.9418 32.6777C67.4926 33 67.0385 33.1611 66.5795 33.1611C66.2084 33.1611 65.8764 33.0928 65.5834 32.9561C65.2904 32.8193 65.0365 32.6289 64.8217 32.3848C64.6068 32.1309 64.4408 31.8281 64.3236 31.4766C64.2162 31.125 64.1625 30.7295 64.1625 30.29C64.1625 29.6064 64.226 29.001 64.3529 28.4736C64.4896 27.9463 64.6361 27.5068 64.7924 27.1553C64.9486 26.7939 65.0951 26.5205 65.2318 26.335C65.3686 26.1494 65.4369 26.0566 65.4369 26.0566C65.4857 25.998 65.5443 25.9541 65.6127 25.9248C65.6908 25.8955 65.7689 25.8809 65.8471 25.8809C66.0033 25.8809 66.1303 25.9395 66.2279 26.0566C66.3354 26.1641 66.3891 26.291 66.3891 26.4375C66.3891 26.4961 66.3744 26.5547 66.3451 26.6133C66.3256 26.6719 66.3012 26.7305 66.2719 26.7891C66.223 26.877 66.1449 27.0137 66.0375 27.1992C65.9301 27.375 65.8178 27.6094 65.7006 27.9023C65.5834 28.1953 65.4809 28.542 65.393 28.9424C65.3051 29.333 65.2611 29.7822 65.2611 30.29C65.2611 30.8662 65.3734 31.3057 65.598 31.6084C65.8324 31.9014 66.1596 32.0479 66.5795 32.0479C66.7553 32.0479 66.9555 31.9941 67.1801 31.8867C67.4145 31.7695 67.6391 31.5938 67.8539 31.3594C68.0785 31.125 68.2738 30.8271 68.4398 30.4658C68.6059 30.1045 68.7133 29.6797 68.7621 29.1914L68.9818 26.6719C69.0014 26.5254 69.0648 26.4033 69.1723 26.3057C69.2797 26.208 69.4066 26.1592 69.5531 26.1592C69.7191 26.1592 69.851 26.2227 69.9486 26.3496C70.0463 26.4668 70.0951 26.6035 70.0951 26.7598L69.9047 29.1914C69.8852 29.3965 69.89 29.665 69.9193 29.9971C69.9584 30.3291 70.0316 30.6562 70.1391 30.9785C70.2465 31.3008 70.4076 31.5791 70.6225 31.8135C70.8373 32.0381 71.1205 32.1504 71.4721 32.1504C71.726 32.1504 71.975 32.0869 72.2191 31.96C72.4633 31.8232 72.6977 31.6475 72.9223 31.4326C73.1469 31.2178 73.352 30.9785 73.5375 30.7148C73.7328 30.4414 73.9086 30.168 74.0648 29.8945C74.2309 29.6211 74.3725 29.3623 74.4896 29.1182C74.6068 28.8643 74.7045 28.6494 74.7826 28.4736C74.8314 28.3662 74.8998 28.2832 74.9877 28.2246C75.0756 28.166 75.1732 28.1367 75.2807 28.1367C75.4564 28.1367 75.5932 28.1953 75.6908 28.3125C75.7885 28.4297 75.8373 28.5566 75.8373 28.6934C75.8373 28.7715 75.8227 28.8447 75.7934 28.9131C75.7543 28.9912 75.6762 29.1572 75.559 29.4111C75.4516 29.6553 75.3051 29.9385 75.1195 30.2607C74.9437 30.5732 74.7289 30.9053 74.475 31.2568C74.2211 31.6084 73.9379 31.9355 73.6254 32.2383C73.3129 32.5312 72.9711 32.7754 72.6 32.9707C72.2387 33.1562 71.848 33.249 71.4281 33.249C70.852 33.249 70.3734 33.0879 69.9926 32.7656C69.6117 32.4336 69.3285 31.9648 69.143 31.3594ZM79.2732 27.5801C79.2146 27.7363 79.1414 27.9121 79.0535 28.1074C78.9754 28.3027 78.8826 28.5078 78.7752 28.7227C78.6873 28.8887 78.5945 29.0205 78.4969 29.1182C78.409 29.2061 78.2918 29.25 78.1453 29.25C77.9793 29.25 77.8475 29.2012 77.7498 29.1035C77.6521 28.9961 77.6033 28.874 77.6033 28.7373C77.6033 28.6885 77.6082 28.6494 77.618 28.6201C77.6277 28.5811 77.6521 28.5225 77.6912 28.4443C77.9451 27.9561 78.1307 27.5312 78.2479 27.1699C78.3748 26.7988 78.4773 26.4131 78.5555 26.0127C78.4871 25.7881 78.4383 25.5977 78.409 25.4414C78.3797 25.2852 78.365 25.124 78.365 24.958C78.365 24.6357 78.4334 24.377 78.5701 24.1816C78.7068 23.9766 78.8973 23.874 79.1414 23.874C79.366 23.874 79.5418 23.9717 79.6688 24.167C79.8055 24.3623 79.8738 24.6016 79.8738 24.8848C79.8738 25.041 79.8592 25.1973 79.8299 25.3535C79.8006 25.5098 79.7615 25.7051 79.7127 25.9395C79.9373 26.4961 80.1619 26.9893 80.3865 27.4189C80.6111 27.8486 80.8113 28.2441 80.9871 28.6055C81.1629 28.957 81.3045 29.2891 81.4119 29.6016C81.5291 29.9141 81.5877 30.2266 81.5877 30.5391C81.5877 30.9492 81.5047 31.3398 81.3387 31.7109C81.1727 32.082 80.8992 32.3945 80.5184 32.6484C80.5672 32.6582 80.616 32.6631 80.6648 32.6631C80.7137 32.6631 80.7625 32.6631 80.8113 32.6631C81.368 32.6631 81.8807 32.5361 82.3494 32.2822C82.8182 32.0283 83.2381 31.7012 83.6092 31.3008C83.99 30.8906 84.327 30.4414 84.6199 29.9531C84.9129 29.4551 85.1668 28.9619 85.3816 28.4736C85.4793 28.249 85.616 28.1367 85.7918 28.1367C85.9578 28.1367 86.0848 28.1953 86.1727 28.3125C86.2703 28.4297 86.3191 28.5566 86.3191 28.6934C86.3191 28.7715 86.3045 28.8447 86.2752 28.9131C86.1678 29.1768 86.0262 29.4795 85.8504 29.8213C85.6844 30.1533 85.4793 30.5 85.2352 30.8613C85.0008 31.2129 84.7273 31.5596 84.4148 31.9014C84.1023 32.2432 83.7508 32.5508 83.3602 32.8242C82.9793 33.0879 82.5594 33.2979 82.1004 33.4541C81.6414 33.6201 81.1385 33.7031 80.5916 33.7031C79.9373 33.7031 79.327 33.5859 78.7605 33.3516C78.2039 33.127 77.7498 32.751 77.3982 32.2236C77.3396 32.1357 77.3104 32.043 77.3104 31.9453C77.3104 31.7988 77.3641 31.6719 77.4715 31.5645C77.5887 31.4473 77.7205 31.3887 77.867 31.3887C78.0232 31.3887 78.1551 31.4424 78.2625 31.5498C78.2723 31.5693 78.3064 31.6035 78.365 31.6523C78.4236 31.6914 78.492 31.7402 78.5701 31.7988C78.658 31.8477 78.7557 31.8916 78.8631 31.9307C78.9803 31.9697 79.0975 31.9893 79.2146 31.9893C79.449 31.9893 79.6443 31.9404 79.8006 31.8428C79.9666 31.7451 80.0984 31.6279 80.1961 31.4912C80.2938 31.3447 80.3621 31.1934 80.4012 31.0371C80.45 30.8711 80.4744 30.7295 80.4744 30.6123C80.4744 30.3682 80.4354 30.124 80.3572 29.8799C80.2791 29.6357 80.1766 29.3916 80.0496 29.1475C79.9324 28.9033 79.8006 28.6543 79.6541 28.4004C79.5174 28.1367 79.3904 27.8633 79.2732 27.5801ZM99.9797 18.3369C99.9797 18.4932 99.926 18.6201 99.8186 18.7178C99.7111 18.8057 99.5793 18.8496 99.423 18.8496H91.9963V19.0107C91.9963 19.6064 91.9523 20.2412 91.8645 20.915C91.7766 21.5889 91.6545 22.2627 91.4982 22.9365C91.3518 23.6006 91.1809 24.25 90.9855 24.8848C90.8 25.5195 90.6047 26.1055 90.3996 26.6426C90.2043 27.1797 90.009 27.6484 89.8137 28.0488C89.6184 28.4395 89.4426 28.7324 89.2863 28.9277C89.4133 29.377 89.5647 29.7969 89.7404 30.1875C89.9162 30.5684 90.1115 30.9053 90.3264 31.1982C90.551 31.4814 90.7902 31.7061 91.0441 31.8721C91.298 32.0381 91.5715 32.1211 91.8645 32.1211C92.2063 32.1211 92.5432 31.9795 92.8752 31.6963C93.217 31.4033 93.5295 31.0615 93.8127 30.6709C94.1057 30.2705 94.3596 29.8701 94.5744 29.4697C94.799 29.0596 94.9602 28.7324 95.0578 28.4883C95.1555 28.2539 95.3264 28.1367 95.5705 28.1367C95.7365 28.1367 95.8684 28.1953 95.966 28.3125C96.0734 28.4297 96.1272 28.5566 96.1272 28.6934C96.1272 28.7617 96.1125 28.8301 96.0832 28.8984C96.0539 28.9668 95.9807 29.123 95.8635 29.3672C95.7561 29.6113 95.6096 29.8945 95.424 30.2168C95.2482 30.5391 95.0383 30.8809 94.7941 31.2422C94.5598 31.5938 94.2912 31.916 93.9885 32.209C93.6955 32.502 93.3781 32.7461 93.0363 32.9414C92.6945 33.1367 92.3332 33.2344 91.9523 33.2344C91.2785 33.2344 90.673 33.0146 90.1359 32.5752C89.5988 32.1357 89.1398 31.5205 88.759 30.7295C88.3879 29.9385 88.1047 29.001 87.9094 27.917C87.7141 26.833 87.6164 25.6465 87.6164 24.3574C87.6164 24.0352 87.6213 23.6592 87.6311 23.2295C87.6408 22.79 87.6604 22.3311 87.6897 21.8525C87.7189 21.3643 87.7629 20.8662 87.8215 20.3584C87.8801 19.8408 87.9582 19.3379 88.0559 18.8496H82.7971C82.6408 18.8496 82.509 18.8057 82.4016 18.7178C82.2941 18.6201 82.2404 18.4932 82.2404 18.3369C82.2404 18.1807 82.2941 18.0586 82.4016 17.9707C82.509 17.873 82.6408 17.8242 82.7971 17.8242H88.3049C88.4025 17.4727 88.5148 17.1504 88.6418 16.8574C88.7785 16.5645 88.9299 16.3105 89.0959 16.0957C89.2717 15.8809 89.4621 15.7148 89.6672 15.5977C89.882 15.4707 90.1164 15.4072 90.3703 15.4072C90.6145 15.4072 90.8244 15.4707 91.0002 15.5977C91.1857 15.7148 91.342 15.8809 91.4689 16.0957C91.5959 16.3105 91.6936 16.5645 91.7619 16.8574C91.84 17.1504 91.8986 17.4727 91.9377 17.8242H99.423C99.5793 17.8242 99.7111 17.873 99.8186 17.9707C99.926 18.0586 99.9797 18.1807 99.9797 18.3369ZM88.9494 27.4629C89.2424 26.8184 89.5061 26.125 89.7404 25.3828C89.9846 24.6309 90.1897 23.874 90.3557 23.1123C90.5314 22.3506 90.6633 21.6035 90.7512 20.8711C90.8488 20.1387 90.8977 19.4648 90.8977 18.8496H89.1691C89.0324 19.4551 88.9201 20.207 88.8322 21.1055C88.7541 21.9941 88.715 23.0781 88.715 24.3574C88.715 25.0703 88.7346 25.6709 88.7736 26.1592C88.8127 26.6377 88.8713 27.0723 88.9494 27.4629ZM90.3117 16.5059C90.2238 16.5059 90.0969 16.6035 89.9309 16.7988C89.7648 16.9844 89.5988 17.3262 89.4328 17.8242H90.8391C90.7902 17.4141 90.717 17.0918 90.6193 16.8574C90.5314 16.623 90.4289 16.5059 90.3117 16.5059ZM89.1838 28.5176V28.5322V28.5176ZM120.562 11.4521C121.764 11.4521 122.989 11.5645 124.239 11.7891C125.489 12.0039 126.705 12.3359 127.887 12.7852C129.068 13.2344 130.182 13.8008 131.227 14.4844C132.271 15.1582 133.185 15.9492 133.966 16.8574C134.747 17.7656 135.362 18.791 135.812 19.9336C136.271 21.0762 136.5 22.3408 136.5 23.7275C136.5 25.1143 136.256 26.3984 135.768 27.5801C135.279 28.7617 134.596 29.7822 133.717 30.6416C132.838 31.501 131.788 32.1748 130.567 32.6631C129.347 33.1514 128.004 33.3955 126.539 33.3955C125.846 33.3955 125.128 33.3418 124.386 33.2344C123.644 33.1367 122.901 32.9805 122.159 32.7656C121.417 32.5508 120.685 32.2871 119.962 31.9746C119.249 31.6523 118.565 31.2715 117.911 30.832C117.14 31.5938 116.246 32.1895 115.23 32.6191C114.225 33.0391 113.16 33.249 112.037 33.249C111.432 33.249 110.865 33.1807 110.338 33.0439C109.811 32.9072 109.352 32.7119 108.961 32.458C108.58 32.2041 108.277 31.8965 108.053 31.5352C107.838 31.1738 107.73 30.7734 107.73 30.334C107.73 29.9531 107.823 29.5967 108.009 29.2646C108.204 28.9326 108.473 28.6396 108.814 28.3857C109.166 28.1318 109.581 27.9316 110.06 27.7852C110.548 27.6387 111.08 27.5654 111.656 27.5654C113.355 27.5654 115.367 28.1904 117.691 29.4404C118.121 28.9033 118.473 28.2979 118.746 27.624C119.049 26.8721 119.283 26.1006 119.449 25.3096C119.625 24.5088 119.776 23.7129 119.903 22.9219C120.04 22.1309 120.177 21.3594 120.313 20.6074C120.46 19.8555 120.655 19.1475 120.899 18.4834C121.153 17.8193 121.48 17.2139 121.881 16.667C122.291 16.1104 122.823 15.6367 123.478 15.2461C123.575 15.1973 123.663 15.1729 123.741 15.1729C123.878 15.1729 124.005 15.2217 124.122 15.3193C124.249 15.417 124.312 15.5537 124.312 15.7295C124.312 15.9346 124.22 16.0908 124.034 16.1982C123.517 16.501 123.092 16.8818 122.76 17.3408C122.438 17.79 122.169 18.2979 121.954 18.8643C121.739 19.4307 121.568 20.041 121.441 20.6953C121.314 21.3496 121.192 22.0332 121.075 22.7461C120.978 23.332 120.87 23.9473 120.753 24.5918C120.636 25.2266 120.489 25.8613 120.313 26.4961C120.138 27.1211 119.913 27.7363 119.64 28.3418C119.376 28.9375 119.049 29.4893 118.658 29.9971C118.678 30.0068 118.688 30.0166 118.688 30.0264C118.697 30.0264 118.712 30.0312 118.731 30.041C119.972 30.7832 121.261 31.3447 122.599 31.7256C123.937 32.1064 125.245 32.2969 126.524 32.2969C127.911 32.2969 129.151 32.0674 130.245 31.6084C131.349 31.1494 132.281 30.5342 133.043 29.7627C133.805 28.9814 134.386 28.0732 134.786 27.0381C135.187 26.0029 135.387 24.9092 135.387 23.7568C135.387 22.585 135.191 21.4961 134.801 20.4902C134.41 19.4746 133.873 18.5518 133.189 17.7217C132.516 16.8916 131.71 16.1543 130.772 15.5098C129.845 14.8652 128.839 14.3281 127.755 13.8984C126.681 13.459 125.548 13.127 124.356 12.9023C123.175 12.668 121.988 12.5508 120.797 12.5508C119.195 12.5508 117.73 12.6875 116.402 12.9609C115.084 13.2246 113.946 13.6152 112.989 14.1328C112.042 14.6504 111.305 15.2852 110.777 16.0371C110.25 16.7891 109.986 17.6436 109.986 18.6006C109.986 19.1475 110.064 19.6309 110.221 20.0508C110.387 20.4707 110.592 20.8369 110.836 21.1494C111.09 21.4521 111.363 21.7109 111.656 21.9258C111.949 22.1406 112.223 22.3164 112.477 22.4531C112.73 22.5801 112.945 22.6729 113.121 22.7314C113.307 22.79 113.414 22.8242 113.443 22.834C113.57 22.8633 113.668 22.9316 113.736 23.0391C113.814 23.1367 113.854 23.249 113.854 23.376C113.854 23.542 113.795 23.6689 113.678 23.7568C113.561 23.8447 113.434 23.8887 113.297 23.8887C113.102 23.8887 112.857 23.8447 112.564 23.7568C112.271 23.6592 111.959 23.5176 111.627 23.332C111.305 23.1367 110.978 22.8975 110.646 22.6143C110.323 22.3213 110.03 21.9795 109.767 21.5889C109.503 21.1982 109.288 20.7539 109.122 20.2559C108.966 19.7578 108.888 19.2061 108.888 18.6006C108.888 17.4971 109.166 16.5059 109.723 15.627C110.289 14.7383 111.085 13.9863 112.11 13.3711C113.136 12.7559 114.361 12.2822 115.787 11.9502C117.223 11.6182 118.814 11.4521 120.562 11.4521ZM116.9 30.2754C115.885 29.7383 114.942 29.333 114.073 29.0596C113.204 28.7861 112.408 28.6494 111.686 28.6494C111.275 28.6494 110.895 28.6982 110.543 28.7959C110.201 28.8838 109.903 29.0059 109.649 29.1621C109.396 29.3184 109.195 29.499 109.049 29.7041C108.902 29.9092 108.829 30.124 108.829 30.3486C108.829 30.5635 108.893 30.7783 109.02 30.9932C109.156 31.208 109.356 31.3984 109.62 31.5645C109.894 31.7305 110.23 31.8672 110.631 31.9746C111.031 32.082 111.5 32.1357 112.037 32.1357C112.955 32.1357 113.829 31.9746 114.659 31.6523C115.499 31.3203 116.246 30.8613 116.9 30.2754ZM147.685 31.3887C147.441 31.3887 147.226 31.3691 147.04 31.3301C146.894 31.623 146.718 31.8965 146.513 32.1504C146.308 32.3945 146.069 32.6094 145.795 32.7949C145.532 32.9805 145.234 33.127 144.902 33.2344C144.57 33.3418 144.208 33.3955 143.818 33.3955C143.359 33.3955 142.939 33.3125 142.558 33.1465C142.177 32.9902 141.845 32.7705 141.562 32.4873C141.279 32.1943 141.059 31.8477 140.903 31.4473C140.746 31.0371 140.668 30.5879 140.668 30.0996C140.668 29.4746 140.781 28.9326 141.005 28.4736C141.23 28.0049 141.489 27.6191 141.782 27.3164C142.075 27.0039 142.368 26.7744 142.661 26.6279C142.954 26.4717 143.173 26.3936 143.32 26.3936C143.486 26.3936 143.608 26.4375 143.686 26.5254C143.774 26.6133 143.818 26.7305 143.818 26.877C143.818 27.043 143.764 27.1699 143.657 27.2578C143.559 27.3359 143.432 27.4141 143.276 27.4922C143.12 27.5703 142.954 27.6826 142.778 27.8291C142.602 27.9658 142.436 28.1416 142.28 28.3564C142.133 28.5713 142.011 28.8252 141.913 29.1182C141.816 29.4111 141.767 29.7383 141.767 30.0996C141.767 30.4219 141.816 30.7246 141.913 31.0078C142.011 31.2812 142.153 31.5205 142.338 31.7256C142.524 31.9209 142.744 32.0771 142.997 32.1943C143.251 32.3018 143.535 32.3555 143.847 32.3555C144.404 32.3555 144.863 32.2285 145.224 31.9746C145.595 31.7109 145.878 31.3789 146.074 30.9785C145.497 30.6758 145.024 30.2461 144.653 29.6895C144.282 29.1328 144.096 28.5078 144.096 27.8145C144.096 27.2578 144.228 26.8037 144.492 26.4521C144.765 26.1006 145.121 25.9248 145.561 25.9248C145.825 25.9248 146.074 25.9883 146.308 26.1152C146.542 26.2422 146.747 26.4424 146.923 26.7158C147.109 26.9893 147.255 27.3408 147.363 27.7705C147.47 28.2002 147.524 28.7129 147.524 29.3086C147.524 29.6211 147.485 29.9482 147.407 30.29C147.465 30.2998 147.524 30.3047 147.582 30.3047C147.641 30.3047 147.704 30.3047 147.773 30.3047C148.105 30.3047 148.403 30.2656 148.666 30.1875C148.93 30.1094 149.169 29.9922 149.384 29.8359C149.599 29.6797 149.789 29.4795 149.955 29.2354C150.131 28.9912 150.297 28.708 150.454 28.3857C150.483 28.3271 150.546 28.2734 150.644 28.2246C150.742 28.166 150.839 28.1367 150.937 28.1367C151.064 28.1367 151.181 28.1904 151.288 28.2979C151.406 28.3955 151.464 28.5273 151.464 28.6934C151.464 28.7715 151.445 28.8594 151.406 28.957C151.367 29.0449 151.328 29.1279 151.288 29.2061C151.122 29.499 150.927 29.7822 150.703 30.0557C150.488 30.3193 150.229 30.5537 149.926 30.7588C149.633 30.9541 149.301 31.1104 148.93 31.2275C148.559 31.3447 148.144 31.3984 147.685 31.3887ZM145.18 27.6973C145.18 27.8828 145.204 28.0781 145.253 28.2832C145.302 28.4883 145.375 28.6934 145.473 28.8984C145.58 29.0938 145.707 29.2842 145.854 29.4697C146.01 29.6455 146.191 29.7969 146.396 29.9238C146.425 29.7188 146.44 29.5186 146.44 29.3232C146.44 29.0596 146.42 28.791 146.381 28.5176C146.342 28.2441 146.284 27.9951 146.205 27.7705C146.137 27.5361 146.049 27.3506 145.942 27.2139C145.834 27.0674 145.707 26.9941 145.561 26.9941C145.502 26.9941 145.424 27.0381 145.327 27.126C145.229 27.2139 145.18 27.4043 145.18 27.6973ZM157.127 29.1182C157.117 29.2646 157.058 29.3916 156.951 29.499C156.853 29.5967 156.726 29.6455 156.57 29.6455H156.555C156.399 29.6455 156.267 29.5918 156.16 29.4844C156.062 29.3672 156.018 29.2305 156.028 29.0742L156.512 12.4922C156.521 12.3359 156.58 12.2041 156.687 12.0967C156.795 11.9893 156.927 11.9404 157.083 11.9502C157.239 11.96 157.366 12.0186 157.464 12.126C157.571 12.2334 157.625 12.3652 157.625 12.5215L157.127 29.1182ZM157.229 32.6777C157.229 32.9023 157.151 33.0879 156.995 33.2344C156.848 33.3906 156.663 33.4688 156.438 33.4688C156.214 33.4688 156.023 33.3906 155.867 33.2344C155.721 33.0879 155.647 32.9023 155.647 32.6777C155.647 32.4531 155.721 32.2676 155.867 32.1211C156.023 31.9648 156.214 31.8867 156.438 31.8867C156.663 31.8867 156.848 31.9648 156.995 32.1211C157.151 32.2676 157.229 32.4531 157.229 32.6777Z" fill="black"/>
<defs>
<filter id="filter0_i" x="0" y="0" width="217.838" height="44.2865" filterUnits="userSpaceOnUse" color-interpolation-filters="sRGB">
<feFlood flood-opacity="0" result="BackgroundImageFix"/>
<feBlend mode="normal" in="SourceGraphic" in2="BackgroundImageFix" result="shape"/>
<feColorMatrix in="SourceAlpha" type="matrix" values="0 0 0 0 0 0 0 0 0 0 0 0 0 0 0 0 0 0 127 0" result="hardAlpha"/>
<feOffset dy="3"/>
<feGaussianBlur stdDeviation="9.5"/>
<feComposite in2="hardAlpha" operator="arithmetic" k2="-1" k3="1"/>
<feColorMatrix type="matrix" values="0 0 0 0 1 0 0 0 0 0.853333 0 0 0 0 0.0833334 0 0 0 0.65 0"/>
<feBlend mode="normal" in2="shape" result="effect1_innerShadow"/>
</filter>
</defs>
</svg>
