<svg width="220" height="44" viewBox="0 0 220 44" fill="none" xmlns="http://www.w3.org/2000/svg">
<g filter="url(#filter0_i)">
<path d="M1.35432 1.37619L193.157 3.09646L202.714 4.47268L212.931 7.22511L199.089 6.19294L213.59 10.6656L198.43 7.91321L213.59 12.0419L199.089 10.1026L212.931 12.73L198.43 12.0419L219.192 14.1062H198.43L213.59 17.2027L204.362 17.7813L212.931 19.611H204.362L212.931 22.3635H205.68L215.567 24.4278H196.123L212.931 27.5243L196.123 26.8362L215.567 29.5886L196.123 28.9005L215.567 31.3089H197.441L214.578 33.3732L197.771 33.7173L215.567 36.1256L177.998 41.6586L189.532 40.2543L182.941 41.6305L177.998 41.6586L1.35432 42.6627V1.37619Z" fill="#7BFFF7"/>
</g>
<path d="M1.35432 1.37619L193.157 3.09646L202.714 4.47268L212.931 7.22511L199.089 6.19294L213.59 10.6656L198.43 7.91321L213.59 12.0419L199.089 10.1026L212.931 12.73L198.43 12.0419L219.192 14.1062H198.43L213.59 17.2027L204.362 17.7813L212.931 19.611H204.362L212.931 22.3635H205.68L215.567 24.4278H196.123L212.931 27.5243L196.123 26.8362L215.567 29.5886L196.123 28.9005L215.567 31.3089H197.441L214.578 33.3732L197.771 33.7173L215.567 36.1256L177.998 41.6586L189.532 40.2543L182.941 41.6305L177.998 41.6586L1.35432 42.6627V1.37619Z" stroke="#01F5E7" stroke-width="2"/>
<path d="M60.5723 18.7675C60.543 18.9043 60.4795 19.0117 60.3818 19.0898C60.2842 19.1679 60.1768 19.207 60.0596 19.207C59.8838 19.207 59.7422 19.1533 59.6348 19.0459C59.5273 18.9287 59.4736 18.7968 59.4736 18.6504C59.4736 18.5039 59.4883 18.3623 59.5176 18.2256C59.5469 18.0791 59.5615 17.9375 59.5615 17.8008C59.5615 17.0879 59.3418 16.4482 58.9023 15.8818C58.4629 15.3154 57.8379 14.8418 57.0273 14.4609C56.2266 14.0703 55.25 13.7724 54.0977 13.5674C52.9453 13.3623 51.6611 13.2597 50.2451 13.2597C49.1611 13.2597 48.0674 13.333 46.9639 13.4795C45.8701 13.6162 44.8154 13.8213 43.7998 14.0947C42.7939 14.3584 41.8516 14.6953 40.9727 15.1054C40.0938 15.5058 39.3271 15.9746 38.6729 16.5117C38.0283 17.039 37.5205 17.6299 37.1494 18.2841C36.7783 18.9287 36.5928 19.6367 36.5928 20.4082C36.5928 21.0039 36.7197 21.5312 36.9736 21.9902C37.2373 22.4394 37.5938 22.8349 38.043 23.1767C38.4922 23.5088 39.0195 23.7968 39.625 24.041C40.2402 24.2754 40.9043 24.4756 41.6172 24.6416C42.3301 24.7978 43.0723 24.9297 43.8438 25.0371C44.6152 25.1347 45.3916 25.2177 46.1729 25.2861L48.4287 25.4765C49.5518 25.5742 50.5576 25.6767 51.4463 25.7841C52.335 25.8916 53.1162 26.0283 53.79 26.1943C54.9131 26.4775 55.7432 26.8828 56.2803 27.4101C56.8174 27.9375 57.0859 28.6406 57.0859 29.5195C57.0859 30.3691 56.8516 31.1162 56.3828 31.7607C55.9141 32.4052 55.2744 32.9472 54.4639 33.3867C53.6533 33.8261 52.7061 34.1582 51.6221 34.3828C50.5381 34.6074 49.376 34.7197 48.1357 34.7197C46.7881 34.7197 45.6016 34.6269 44.5762 34.4414C43.5605 34.2656 42.7061 34.0703 42.0127 33.8554C41.3291 33.6308 40.8066 33.4258 40.4453 33.2402C40.084 33.0547 39.8887 32.9521 39.8594 32.9326C39.6836 32.8349 39.5957 32.6787 39.5957 32.4638C39.5957 32.2978 39.6543 32.166 39.7715 32.0683C39.8887 31.9609 40.0156 31.9072 40.1523 31.9072C40.2598 31.9072 40.3574 31.9365 40.4453 31.9951C40.4551 31.9951 40.6211 32.083 40.9434 32.2588C41.2754 32.4248 41.7637 32.6103 42.4082 32.8154C43.0625 33.0205 43.8682 33.206 44.8252 33.372C45.7822 33.5381 46.8955 33.6211 48.165 33.6211C49.4248 33.6211 50.5381 33.5185 51.5049 33.3134C52.4717 33.1084 53.2822 32.8252 53.9365 32.4638C54.6006 32.0927 55.0986 31.6631 55.4307 31.1748C55.7725 30.6767 55.9434 30.1396 55.9434 29.5634C55.9434 29.2216 55.8799 28.9287 55.7529 28.6845C55.6357 28.4306 55.4697 28.2158 55.2549 28.04C55.04 27.8545 54.7812 27.6982 54.4785 27.5713C54.1855 27.4443 53.8633 27.3369 53.5117 27.249C53.1406 27.1513 52.7402 27.0683 52.3105 27C51.8906 26.9316 51.4561 26.873 51.0068 26.8242C50.5576 26.7754 50.1035 26.7314 49.6445 26.6924C49.1953 26.6533 48.751 26.6142 48.3115 26.5752L46.0557 26.3847C44.2783 26.2383 42.7256 26.0136 41.3975 25.7109C40.0791 25.3984 38.9805 25.0029 38.1016 24.5244C37.2227 24.0361 36.5635 23.455 36.124 22.7812C35.6846 22.1074 35.4648 21.3213 35.4648 20.4228C35.4648 19.5049 35.6699 18.665 36.0801 17.9033C36.5 17.1318 37.0664 16.4384 37.7793 15.8232C38.502 15.208 39.3418 14.6758 40.2988 14.2265C41.2656 13.7675 42.2959 13.3867 43.3896 13.084C44.4834 12.7812 45.6162 12.5566 46.7881 12.4101C47.96 12.2539 49.1123 12.1758 50.2451 12.1758C51.6611 12.1758 52.8916 12.2636 53.9365 12.4394C54.9912 12.6054 55.8896 12.8252 56.6318 13.0986C57.3838 13.3623 57.999 13.665 58.4775 14.0068C58.9561 14.3486 59.3418 14.6855 59.6348 15.0175C60.3281 15.8281 60.6748 16.7509 60.6748 17.7861C60.6748 18.1279 60.6406 18.455 60.5723 18.7675ZM65.1654 32.9033C65.3217 32.5713 65.5023 32.2148 65.7074 31.834C65.9125 31.4433 66.1322 31.0478 66.3666 30.6474C66.601 30.2373 66.85 29.832 67.1137 29.4316C67.3773 29.0312 67.6508 28.6552 67.934 28.3037C68.2172 27.9619 68.5004 27.7177 68.7836 27.5713C69.0766 27.415 69.35 27.3369 69.6039 27.3369C69.8578 27.3369 70.0775 27.3906 70.2631 27.498C70.4584 27.5957 70.6146 27.7324 70.7318 27.9082C70.8588 28.084 70.9516 28.289 71.0102 28.5234C71.0785 28.7578 71.1127 29.0117 71.1127 29.2851C71.1127 29.5097 71.0883 29.8125 71.0395 30.1933C71.0004 30.5644 70.9809 30.955 70.9809 31.3652C70.9809 31.5996 70.9906 31.834 71.0102 32.0683C71.0395 32.2929 71.0834 32.498 71.142 32.6836C71.2104 32.8593 71.308 33.0058 71.435 33.123C71.5619 33.2304 71.7279 33.2841 71.933 33.2841C72.1674 33.2841 72.4018 33.2207 72.6361 33.0937C72.8705 32.957 73.1 32.7812 73.3246 32.5664C73.5492 32.3418 73.7641 32.0976 73.9691 31.834C74.1742 31.5605 74.3598 31.292 74.5258 31.0283C74.6918 30.7549 74.8383 30.4961 74.9652 30.2519C75.0922 29.998 75.1947 29.7881 75.2729 29.622C75.3705 29.3974 75.5414 29.2851 75.7855 29.2851C75.9516 29.2851 76.0834 29.3437 76.1811 29.4609C76.2787 29.5781 76.3275 29.705 76.3275 29.8418C76.3275 29.9199 76.3129 29.9931 76.2836 30.0615C76.2445 30.1396 76.1664 30.3008 76.0492 30.5449C75.9418 30.789 75.7904 31.0722 75.5951 31.3945C75.4096 31.7168 75.1898 32.0537 74.9359 32.4052C74.682 32.7568 74.3988 33.084 74.0863 33.3867C73.7836 33.6797 73.4516 33.9238 73.0902 34.1191C72.7387 34.3047 72.3676 34.3974 71.977 34.3974C71.5277 34.3974 71.1664 34.3047 70.893 34.1191C70.6195 33.9238 70.4047 33.6797 70.2484 33.3867C70.102 33.0937 69.9994 32.7666 69.9408 32.4052C69.892 32.0439 69.8676 31.6924 69.8676 31.3506C69.8676 31.1748 69.8725 30.9892 69.8822 30.7939C69.9018 30.5888 69.9213 30.3886 69.9408 30.1933C69.9604 29.998 69.975 29.8174 69.9848 29.6513C70.0043 29.4756 70.0141 29.3291 70.0141 29.2119C70.0141 28.9091 69.9701 28.7041 69.8822 28.5966C69.8041 28.4892 69.7113 28.4355 69.6039 28.4355C69.4477 28.4355 69.267 28.5283 69.0619 28.7138C68.8666 28.8896 68.6566 29.124 68.432 29.417C68.2172 29.7099 67.9975 30.042 67.7729 30.4131C67.558 30.7744 67.348 31.1357 67.143 31.497C66.9379 31.8584 66.7523 32.205 66.5863 32.5371C66.4203 32.8593 66.2836 33.1279 66.1762 33.3427C65.9711 33.7529 65.7611 34.0263 65.5463 34.1631C65.3412 34.3095 65.1557 34.3828 64.9896 34.3828C64.6869 34.3828 64.4525 34.2656 64.2865 34.0312C64.1303 33.7871 64.0521 33.4941 64.0521 33.1523V32.2295C64.0521 30.3838 64.0521 28.6259 64.0521 26.956C64.0619 25.2763 64.0863 23.7187 64.1254 22.2832C64.1742 20.8379 64.2475 19.5341 64.3451 18.372C64.4525 17.2002 64.6088 16.2041 64.8139 15.3838C65.0189 14.5537 65.2777 13.914 65.5902 13.4648C65.9125 13.0156 66.3129 12.791 66.7914 12.791C67.2016 12.791 67.5482 12.9033 67.8314 13.1279C68.1146 13.3525 68.3441 13.6601 68.5199 14.0508C68.6957 14.4316 68.8227 14.8808 68.9008 15.3984C68.9789 15.9062 69.018 16.4433 69.018 17.0097C69.018 18.1621 68.9105 19.2949 68.6957 20.4082C68.4906 21.5117 68.2123 22.5908 67.8607 23.6455C67.5092 24.7002 67.099 25.7304 66.6303 26.7363C66.1615 27.7324 65.6684 28.7041 65.1508 29.6513C65.1508 29.8271 65.1508 30.0371 65.1508 30.2812C65.1508 30.5254 65.1508 30.7695 65.1508 31.0136C65.1508 31.2578 65.1508 31.4873 65.1508 31.7021C65.1508 31.917 65.1508 32.0879 65.1508 32.2148L65.1654 32.9033ZM65.1654 27.498C65.5756 26.5996 65.9467 25.7256 66.2787 24.8759C66.6205 24.0166 66.9086 23.1621 67.143 22.3125C67.3871 21.4629 67.5775 20.6035 67.7143 19.7343C67.851 18.8554 67.9193 17.9424 67.9193 16.9951C67.9193 16.8388 67.9096 16.5898 67.89 16.248C67.8803 15.9062 67.8363 15.5595 67.7582 15.208C67.6898 14.8564 67.5775 14.5488 67.4213 14.2851C67.2748 14.0215 67.0648 13.8896 66.7914 13.8896C66.5766 13.8896 66.391 14.0361 66.2348 14.3291C66.0785 14.6123 65.9418 15.0029 65.8246 15.5009C65.7074 15.9892 65.6098 16.5605 65.5316 17.2148C65.4535 17.8691 65.39 18.5625 65.3412 19.2949C65.2924 20.0273 65.2533 20.7793 65.224 21.5508C65.2045 22.3222 65.1898 23.0742 65.1801 23.8066C65.1703 24.5293 65.1654 25.208 65.1654 25.8427C65.1654 26.4775 65.1654 27.0293 65.1654 27.498ZM84.8904 32.5371C84.6463 32.5371 84.4314 32.5175 84.2459 32.4785C84.0994 32.7715 83.9236 33.0449 83.7186 33.2988C83.5135 33.5429 83.2742 33.7578 83.0008 33.9433C82.7371 34.1289 82.4393 34.2754 82.1072 34.3828C81.7752 34.4902 81.4139 34.5439 81.0232 34.5439C80.5643 34.5439 80.1443 34.4609 79.7635 34.2949C79.3826 34.1386 79.0506 33.9189 78.7674 33.6357C78.4842 33.3427 78.2645 32.9961 78.1082 32.5957C77.952 32.1855 77.8738 31.7363 77.8738 31.248C77.8738 30.623 77.9861 30.081 78.2107 29.622C78.4354 29.1533 78.6941 28.7675 78.9871 28.4648C79.2801 28.1523 79.573 27.9228 79.866 27.7763C80.159 27.6201 80.3787 27.542 80.5252 27.542C80.6912 27.542 80.8133 27.5859 80.8914 27.6738C80.9793 27.7617 81.0232 27.8789 81.0232 28.0254C81.0232 28.1914 80.9695 28.3183 80.8621 28.4062C80.7645 28.4843 80.6375 28.5625 80.4813 28.6406C80.325 28.7187 80.159 28.831 79.9832 28.9775C79.8074 29.1142 79.6414 29.29 79.4852 29.5049C79.3387 29.7197 79.2166 29.9736 79.1189 30.2666C79.0213 30.5595 78.9725 30.8867 78.9725 31.248C78.9725 31.5703 79.0213 31.873 79.1189 32.1562C79.2166 32.4297 79.3582 32.6689 79.5438 32.874C79.7293 33.0693 79.949 33.2256 80.2029 33.3427C80.4568 33.4502 80.74 33.5039 81.0525 33.5039C81.6092 33.5039 82.0682 33.3769 82.4295 33.123C82.8006 32.8593 83.0838 32.5273 83.2791 32.1269C82.7029 31.8242 82.2293 31.3945 81.8582 30.8379C81.4871 30.2812 81.3016 29.6562 81.3016 28.9629C81.3016 28.4062 81.4334 27.9521 81.6971 27.6006C81.9705 27.249 82.327 27.0732 82.7664 27.0732C83.0301 27.0732 83.2791 27.1367 83.5135 27.2636C83.7479 27.3906 83.9529 27.5908 84.1287 27.8642C84.3143 28.1377 84.4607 28.4892 84.5682 28.9189C84.6756 29.3486 84.7293 29.8613 84.7293 30.457C84.7293 30.7695 84.6902 31.0966 84.6121 31.4384C84.6707 31.4482 84.7293 31.4531 84.7879 31.4531C84.8465 31.4531 84.91 31.4531 84.9783 31.4531C85.3104 31.4531 85.6082 31.414 85.8719 31.3359C86.1355 31.2578 86.3748 31.1406 86.5896 30.9843C86.8045 30.8281 86.9949 30.6279 87.1609 30.3838C87.3367 30.1396 87.5027 29.8564 87.659 29.5341C87.6883 29.4756 87.7518 29.4218 87.8494 29.373C87.9471 29.3144 88.0447 29.2851 88.1424 29.2851C88.2693 29.2851 88.3865 29.3388 88.4939 29.4463C88.6111 29.5439 88.6697 29.6758 88.6697 29.8418C88.6697 29.9199 88.6502 30.0078 88.6111 30.1054C88.5721 30.1933 88.533 30.2763 88.4939 30.3545C88.3279 30.6474 88.1326 30.9306 87.908 31.2041C87.6932 31.4677 87.4344 31.7021 87.1316 31.9072C86.8387 32.1025 86.5066 32.2588 86.1355 32.3759C85.7645 32.4931 85.3494 32.5468 84.8904 32.5371ZM82.3855 28.8457C82.3855 29.0312 82.41 29.2265 82.4588 29.4316C82.5076 29.6367 82.5809 29.8418 82.6785 30.0468C82.7859 30.2422 82.9129 30.4326 83.0594 30.6181C83.2156 30.7939 83.3963 30.9453 83.6014 31.0722C83.6307 30.8672 83.6453 30.667 83.6453 30.4716C83.6453 30.208 83.6258 29.9394 83.5867 29.666C83.5477 29.3925 83.4891 29.1435 83.4109 28.9189C83.3426 28.6845 83.2547 28.499 83.1473 28.3623C83.0398 28.2158 82.9129 28.1425 82.7664 28.1425C82.7078 28.1425 82.6297 28.1865 82.532 28.2744C82.4344 28.3623 82.3855 28.5527 82.3855 28.8457ZM95.343 32.5078C95.0012 33.0644 94.6008 33.5039 94.1418 33.8261C93.6926 34.1484 93.2385 34.3095 92.7795 34.3095C92.4084 34.3095 92.0764 34.2412 91.7834 34.1045C91.4904 33.9677 91.2365 33.7773 91.0217 33.5332C90.8068 33.2793 90.6408 32.9765 90.5236 32.625C90.4162 32.2734 90.3625 31.8779 90.3625 31.4384C90.3625 30.7549 90.426 30.1494 90.5529 29.622C90.6896 29.0947 90.8361 28.6552 90.9924 28.3037C91.1486 27.9424 91.2951 27.6689 91.4318 27.4834C91.5686 27.2978 91.6369 27.205 91.6369 27.205C91.6857 27.1465 91.7443 27.1025 91.8127 27.0732C91.8908 27.0439 91.9689 27.0293 92.0471 27.0293C92.2033 27.0293 92.3303 27.0879 92.4279 27.205C92.5354 27.3125 92.5891 27.4394 92.5891 27.5859C92.5891 27.6445 92.5744 27.7031 92.5451 27.7617C92.5256 27.8203 92.5012 27.8789 92.4719 27.9375C92.423 28.0254 92.3449 28.1621 92.2375 28.3476C92.1301 28.5234 92.0178 28.7578 91.9006 29.0508C91.7834 29.3437 91.6809 29.6904 91.593 30.0908C91.5051 30.4814 91.4611 30.9306 91.4611 31.4384C91.4611 32.0146 91.5734 32.4541 91.798 32.7568C92.0324 33.0498 92.3596 33.1963 92.7795 33.1963C92.9553 33.1963 93.1555 33.1425 93.3801 33.0351C93.6145 32.9179 93.8391 32.7422 94.0539 32.5078C94.2785 32.2734 94.4738 31.9756 94.6398 31.6142C94.8059 31.2529 94.9133 30.8281 94.9621 30.3398L95.1818 27.8203C95.2014 27.6738 95.2648 27.5517 95.3723 27.4541C95.4797 27.3564 95.6066 27.3076 95.7531 27.3076C95.9191 27.3076 96.051 27.3711 96.1486 27.498C96.2463 27.6152 96.2951 27.7519 96.2951 27.9082L96.1047 30.3398C96.0852 30.5449 96.09 30.8134 96.1193 31.1455C96.1584 31.4775 96.2316 31.8047 96.3391 32.1269C96.4465 32.4492 96.6076 32.7275 96.8225 32.9619C97.0373 33.1865 97.3205 33.2988 97.6721 33.2988C97.926 33.2988 98.175 33.2353 98.4191 33.1084C98.6633 32.9716 98.8977 32.7959 99.1223 32.581C99.3469 32.3662 99.552 32.1269 99.7375 31.8633C99.9328 31.5898 100.109 31.3164 100.265 31.0429C100.431 30.7695 100.572 30.5107 100.69 30.2666C100.807 30.0127 100.904 29.7978 100.983 29.622C101.031 29.5146 101.1 29.4316 101.188 29.373C101.276 29.3144 101.373 29.2851 101.481 29.2851C101.656 29.2851 101.793 29.3437 101.891 29.4609C101.988 29.5781 102.037 29.705 102.037 29.8418C102.037 29.9199 102.023 29.9931 101.993 30.0615C101.954 30.1396 101.876 30.3056 101.759 30.5595C101.652 30.8037 101.505 31.0869 101.32 31.4091C101.144 31.7216 100.929 32.0537 100.675 32.4052C100.421 32.7568 100.138 33.084 99.8254 33.3867C99.5129 33.6797 99.1711 33.9238 98.8 34.1191C98.4387 34.3047 98.048 34.3974 97.6281 34.3974C97.052 34.3974 96.5734 34.2363 96.1926 33.914C95.8117 33.582 95.5285 33.1133 95.343 32.5078ZM112.182 30.0908C112.075 30.3154 111.938 30.584 111.772 30.8965C111.616 31.1992 111.435 31.5166 111.23 31.8486C111.025 32.1806 110.796 32.5127 110.542 32.8447C110.288 33.167 110.009 33.4599 109.707 33.7236C109.414 33.9775 109.096 34.1826 108.754 34.3388C108.422 34.5049 108.066 34.5879 107.685 34.5879C107.099 34.5879 106.596 34.4072 106.176 34.0459C105.756 33.6845 105.4 33.2109 105.107 32.625C104.814 32.039 104.575 31.375 104.389 30.6328C104.213 29.8808 104.077 29.1191 103.979 28.3476C103.881 27.5664 103.813 26.8095 103.774 26.0771C103.745 25.3447 103.73 24.6953 103.73 24.1289C103.73 23.3086 103.754 22.459 103.803 21.58C103.862 20.7011 103.95 19.8418 104.067 19.0019C104.184 18.1621 104.331 17.3662 104.506 16.6142C104.692 15.8623 104.907 15.2031 105.151 14.6367C105.405 14.0703 105.693 13.6211 106.015 13.289C106.338 12.957 106.704 12.791 107.114 12.791C107.436 12.791 107.724 12.8691 107.978 13.0254C108.242 13.1718 108.462 13.416 108.637 13.7578C108.813 14.0996 108.95 14.5439 109.047 15.0908C109.145 15.6377 109.194 16.3066 109.194 17.0976C109.194 18.0742 109.091 19.0849 108.886 20.1299C108.681 21.165 108.403 22.2099 108.051 23.2646C107.7 24.3193 107.285 25.374 106.806 26.4287C106.328 27.4736 105.815 28.4941 105.268 29.4902C105.512 30.7304 105.839 31.707 106.25 32.4199C106.66 33.123 107.153 33.4746 107.729 33.4746C108.12 33.4746 108.496 33.3232 108.857 33.0205C109.218 32.708 109.55 32.3418 109.853 31.9218C110.156 31.5019 110.42 31.0771 110.644 30.6474C110.879 30.208 111.059 29.8564 111.186 29.5927C111.235 29.4951 111.303 29.4218 111.391 29.373C111.479 29.3144 111.577 29.2851 111.684 29.2851C111.85 29.2851 111.982 29.3437 112.08 29.4609C112.187 29.5781 112.241 29.7099 112.241 29.8564C112.241 29.915 112.221 29.9931 112.182 30.0908ZM104.843 24.2021C104.843 24.8271 104.858 25.4277 104.887 26.0039C104.917 26.58 104.956 27.1318 105.004 27.6591C105.415 26.8681 105.805 26.0283 106.176 25.1396C106.547 24.2412 106.875 23.3379 107.158 22.4297C107.441 21.5117 107.666 20.6035 107.832 19.705C108.007 18.7968 108.095 17.9326 108.095 17.1123C108.095 15.9599 108.003 15.1347 107.817 14.6367C107.631 14.1386 107.382 13.8896 107.07 13.8896C106.865 13.8896 106.665 14.0312 106.469 14.3144C106.284 14.5976 106.108 14.9834 105.942 15.4716C105.776 15.9599 105.625 16.5361 105.488 17.2002C105.351 17.8642 105.234 18.5771 105.136 19.3388C105.048 20.1006 104.975 20.8965 104.917 21.7265C104.868 22.5566 104.843 23.3818 104.843 24.2021ZM136.647 12.6006C137.848 12.6006 139.074 12.7129 140.324 12.9375C141.574 13.1523 142.789 13.4843 143.971 13.9336C145.153 14.3828 146.266 14.9492 147.311 15.6328C148.356 16.3066 149.269 17.0976 150.05 18.0058C150.831 18.914 151.447 19.9394 151.896 21.082C152.355 22.2246 152.584 23.4892 152.584 24.8759C152.584 26.2627 152.34 27.5468 151.852 28.7285C151.364 29.9101 150.68 30.9306 149.801 31.79C148.922 32.6494 147.872 33.3232 146.652 33.8115C145.431 34.2998 144.088 34.5439 142.623 34.5439C141.93 34.5439 141.212 34.4902 140.47 34.3828C139.728 34.2851 138.986 34.1289 138.244 33.914C137.501 33.6992 136.769 33.4355 136.046 33.123C135.333 32.8008 134.65 32.4199 133.996 31.9804C133.224 32.7422 132.33 33.3379 131.315 33.7675C130.309 34.1875 129.245 34.3974 128.121 34.3974C127.516 34.3974 126.95 34.3291 126.422 34.1924C125.895 34.0556 125.436 33.8603 125.045 33.6064C124.664 33.3525 124.362 33.0449 124.137 32.6836C123.922 32.3222 123.815 31.9218 123.815 31.4824C123.815 31.1015 123.908 30.7451 124.093 30.4131C124.288 30.081 124.557 29.7881 124.899 29.5341C125.25 29.2802 125.665 29.08 126.144 28.9336C126.632 28.7871 127.164 28.7138 127.741 28.7138C129.44 28.7138 131.452 29.3388 133.776 30.5888C134.205 30.0517 134.557 29.4463 134.83 28.7724C135.133 28.0205 135.368 27.249 135.534 26.458C135.709 25.6572 135.861 24.8613 135.988 24.0703C136.124 23.2793 136.261 22.5078 136.398 21.7558C136.544 21.0039 136.74 20.2959 136.984 19.6318C137.238 18.9677 137.565 18.3623 137.965 17.8154C138.375 17.2588 138.908 16.7851 139.562 16.3945C139.66 16.3457 139.747 16.3213 139.826 16.3213C139.962 16.3213 140.089 16.3701 140.206 16.4677C140.333 16.5654 140.397 16.7021 140.397 16.8779C140.397 17.083 140.304 17.2392 140.119 17.3466C139.601 17.6494 139.176 18.0302 138.844 18.4892C138.522 18.9384 138.253 19.4463 138.038 20.0127C137.824 20.5791 137.653 21.1894 137.526 21.8437C137.399 22.498 137.277 23.1816 137.16 23.8945C137.062 24.4804 136.954 25.0957 136.837 25.7402C136.72 26.375 136.574 27.0097 136.398 27.6445C136.222 28.2695 135.997 28.8847 135.724 29.4902C135.46 30.0859 135.133 30.6377 134.743 31.1455C134.762 31.1552 134.772 31.165 134.772 31.1748C134.782 31.1748 134.796 31.1797 134.816 31.1894C136.056 31.9316 137.345 32.4931 138.683 32.874C140.021 33.2549 141.329 33.4453 142.609 33.4453C143.996 33.4453 145.236 33.2158 146.329 32.7568C147.433 32.2978 148.366 31.6826 149.127 30.9111C149.889 30.1299 150.47 29.2216 150.871 28.1865C151.271 27.1513 151.471 26.0576 151.471 24.9052C151.471 23.7334 151.276 22.6445 150.885 21.6386C150.495 20.623 149.957 19.7002 149.274 18.8701C148.6 18.04 147.794 17.3027 146.857 16.6582C145.929 16.0136 144.923 15.4765 143.839 15.0468C142.765 14.6074 141.632 14.2754 140.441 14.0508C139.259 13.8164 138.073 13.6992 136.881 13.6992C135.28 13.6992 133.815 13.8359 132.487 14.1093C131.168 14.373 130.031 14.7636 129.074 15.2812C128.126 15.7988 127.389 16.4336 126.862 17.1855C126.334 17.9375 126.071 18.792 126.071 19.749C126.071 20.2959 126.149 20.7793 126.305 21.1992C126.471 21.6191 126.676 21.9853 126.92 22.2978C127.174 22.6006 127.448 22.8593 127.741 23.0742C128.034 23.289 128.307 23.4648 128.561 23.6015C128.815 23.7285 129.03 23.8213 129.205 23.8799C129.391 23.9384 129.498 23.9726 129.528 23.9824C129.655 24.0117 129.752 24.08 129.821 24.1875C129.899 24.2851 129.938 24.3974 129.938 24.5244C129.938 24.6904 129.879 24.8174 129.762 24.9052C129.645 24.9931 129.518 25.0371 129.381 25.0371C129.186 25.0371 128.942 24.9931 128.649 24.9052C128.356 24.8076 128.043 24.666 127.711 24.4804C127.389 24.2851 127.062 24.0459 126.73 23.7627C126.408 23.4697 126.115 23.1279 125.851 22.7373C125.587 22.3466 125.372 21.9023 125.206 21.4043C125.05 20.9062 124.972 20.3545 124.972 19.749C124.972 18.6455 125.25 17.6543 125.807 16.7754C126.373 15.8867 127.169 15.1347 128.195 14.5195C129.22 13.9043 130.446 13.4306 131.871 13.0986C133.307 12.7666 134.899 12.6006 136.647 12.6006ZM132.985 31.4238C131.969 30.8867 131.027 30.4814 130.158 30.208C129.288 29.9345 128.493 29.7978 127.77 29.7978C127.36 29.7978 126.979 29.8466 126.627 29.9443C126.286 30.0322 125.988 30.1543 125.734 30.3105C125.48 30.4668 125.28 30.6474 125.133 30.8525C124.987 31.0576 124.913 31.2724 124.913 31.497C124.913 31.7119 124.977 31.9267 125.104 32.1416C125.241 32.3564 125.441 32.5468 125.704 32.7129C125.978 32.8789 126.315 33.0156 126.715 33.123C127.116 33.2304 127.584 33.2841 128.121 33.2841C129.039 33.2841 129.913 33.123 130.744 32.8008C131.583 32.4687 132.33 32.0097 132.985 31.4238ZM163.769 32.5371C163.525 32.5371 163.31 32.5175 163.125 32.4785C162.978 32.7715 162.803 33.0449 162.597 33.2988C162.392 33.5429 162.153 33.7578 161.88 33.9433C161.616 34.1289 161.318 34.2754 160.986 34.3828C160.654 34.4902 160.293 34.5439 159.902 34.5439C159.443 34.5439 159.023 34.4609 158.642 34.2949C158.262 34.1386 157.929 33.9189 157.646 33.6357C157.363 33.3427 157.143 32.9961 156.987 32.5957C156.831 32.1855 156.753 31.7363 156.753 31.248C156.753 30.623 156.865 30.081 157.09 29.622C157.314 29.1533 157.573 28.7675 157.866 28.4648C158.159 28.1523 158.452 27.9228 158.745 27.7763C159.038 27.6201 159.258 27.542 159.404 27.542C159.57 27.542 159.692 27.5859 159.77 27.6738C159.858 27.7617 159.902 27.8789 159.902 28.0254C159.902 28.1914 159.848 28.3183 159.741 28.4062C159.643 28.4843 159.516 28.5625 159.36 28.6406C159.204 28.7187 159.038 28.831 158.862 28.9775C158.686 29.1142 158.52 29.29 158.364 29.5049C158.218 29.7197 158.096 29.9736 157.998 30.2666C157.9 30.5595 157.851 30.8867 157.851 31.248C157.851 31.5703 157.9 31.873 157.998 32.1562C158.096 32.4297 158.237 32.6689 158.423 32.874C158.608 33.0693 158.828 33.2256 159.082 33.3427C159.336 33.4502 159.619 33.5039 159.931 33.5039C160.488 33.5039 160.947 33.3769 161.308 33.123C161.679 32.8593 161.963 32.5273 162.158 32.1269C161.582 31.8242 161.108 31.3945 160.737 30.8379C160.366 30.2812 160.18 29.6562 160.18 28.9629C160.18 28.4062 160.312 27.9521 160.576 27.6006C160.849 27.249 161.206 27.0732 161.645 27.0732C161.909 27.0732 162.158 27.1367 162.392 27.2636C162.627 27.3906 162.832 27.5908 163.008 27.8642C163.193 28.1377 163.34 28.4892 163.447 28.9189C163.554 29.3486 163.608 29.8613 163.608 30.457C163.608 30.7695 163.569 31.0966 163.491 31.4384C163.55 31.4482 163.608 31.4531 163.667 31.4531C163.725 31.4531 163.789 31.4531 163.857 31.4531C164.189 31.4531 164.487 31.414 164.751 31.3359C165.014 31.2578 165.254 31.1406 165.469 30.9843C165.683 30.8281 165.874 30.6279 166.04 30.3838C166.216 30.1396 166.382 29.8564 166.538 29.5341C166.567 29.4756 166.631 29.4218 166.728 29.373C166.826 29.3144 166.924 29.2851 167.021 29.2851C167.148 29.2851 167.265 29.3388 167.373 29.4463C167.49 29.5439 167.549 29.6758 167.549 29.8418C167.549 29.9199 167.529 30.0078 167.49 30.1054C167.451 30.1933 167.412 30.2763 167.373 30.3545C167.207 30.6474 167.012 30.9306 166.787 31.2041C166.572 31.4677 166.313 31.7021 166.011 31.9072C165.718 32.1025 165.386 32.2588 165.014 32.3759C164.643 32.4931 164.228 32.5468 163.769 32.5371ZM161.264 28.8457C161.264 29.0312 161.289 29.2265 161.338 29.4316C161.387 29.6367 161.46 29.8418 161.557 30.0468C161.665 30.2422 161.792 30.4326 161.938 30.6181C162.095 30.7939 162.275 30.9453 162.48 31.0722C162.51 30.8672 162.524 30.667 162.524 30.4716C162.524 30.208 162.505 29.9394 162.466 29.666C162.427 29.3925 162.368 29.1435 162.29 28.9189C162.221 28.6845 162.134 28.499 162.026 28.3623C161.919 28.2158 161.792 28.1425 161.645 28.1425C161.587 28.1425 161.509 28.1865 161.411 28.2744C161.313 28.3623 161.264 28.5527 161.264 28.8457ZM173.211 30.2666C173.201 30.4131 173.143 30.54 173.035 30.6474C172.938 30.7451 172.811 30.7939 172.654 30.7939H172.64C172.484 30.7939 172.352 30.7402 172.244 30.6328C172.147 30.5156 172.103 30.3789 172.113 30.2226L172.596 13.6406C172.606 13.4843 172.664 13.3525 172.772 13.2451C172.879 13.1377 173.011 13.0888 173.167 13.0986C173.323 13.1084 173.45 13.167 173.548 13.2744C173.655 13.3818 173.709 13.5136 173.709 13.6699L173.211 30.2666ZM173.314 33.8261C173.314 34.0508 173.236 34.2363 173.079 34.3828C172.933 34.539 172.747 34.6172 172.523 34.6172C172.298 34.6172 172.108 34.539 171.951 34.3828C171.805 34.2363 171.732 34.0508 171.732 33.8261C171.732 33.6015 171.805 33.416 171.951 33.2695C172.108 33.1133 172.298 33.0351 172.523 33.0351C172.747 33.0351 172.933 33.1133 173.079 33.2695C173.236 33.416 173.314 33.6015 173.314 33.8261Z" fill="black"/>
<defs>
<filter id="filter0_i" x="0.354324" y="0.367188" width="218.937" height="46.3012" filterUnits="userSpaceOnUse" color-interpolation-filters="sRGB">
<feFlood flood-opacity="0" result="BackgroundImageFix"/>
<feBlend mode="normal" in="SourceGraphic" in2="BackgroundImageFix" result="shape"/>
<feColorMatrix in="SourceAlpha" type="matrix" values="0 0 0 0 0 0 0 0 0 0 0 0 0 0 0 0 0 0 127 0" result="hardAlpha"/>
<feOffset dy="3"/>
<feGaussianBlur stdDeviation="9.5"/>
<feComposite in2="hardAlpha" operator="arithmetic" k2="-1" k3="1"/>
<feColorMatrix type="matrix" values="0 0 0 0 0.321667 0 0 0 0 1 0 0 0 0 0.0833334 0 0 0 0.38 0"/>
<feBlend mode="normal" in2="shape" result="effect1_innerShadow"/>
</filter>
</defs>
</svg>
