<svg width="142" height="51" viewBox="0 0 142 51" fill="none" xmlns="http://www.w3.org/2000/svg">
<g filter="url(#filter0_d)">
<rect x="9" y="5" width="119.098" height="33" rx="16.5" stroke="white" stroke-width="4"/>
<path d="M44.2041 20.0352C44.2041 21.377 43.7646 22.4053 42.8857 23.1201C42.0068 23.835 40.7559 24.1924 39.1328 24.1924H37.7969V29H35.6963V16.1504H39.3965C41.002 16.1504 42.2031 16.4785 43 17.1348C43.8027 17.791 44.2041 18.7578 44.2041 20.0352ZM37.7969 22.4258H38.9131C39.9912 22.4258 40.7822 22.2383 41.2861 21.8633C41.79 21.4883 42.042 20.9023 42.042 20.1055C42.042 19.3672 41.8164 18.8164 41.3652 18.4531C40.9141 18.0898 40.2109 17.9082 39.2559 17.9082H37.7969V22.4258ZM47.9862 29H45.9208V15.3242H47.9862V29ZM56.4002 29L55.9871 27.6465H55.9168C55.448 28.2383 54.9763 28.6426 54.5017 28.8594C54.0271 29.0703 53.4177 29.1758 52.6736 29.1758C51.7185 29.1758 50.9714 28.918 50.4324 28.4023C49.8992 27.8867 49.6326 27.1572 49.6326 26.2139C49.6326 25.2119 50.0046 24.4561 50.7488 23.9463C51.4929 23.4365 52.6267 23.1582 54.1502 23.1113L55.8289 23.0586V22.54C55.8289 21.9189 55.6824 21.4561 55.3894 21.1514C55.1023 20.8408 54.6541 20.6855 54.0447 20.6855C53.5466 20.6855 53.0691 20.7588 52.6121 20.9053C52.155 21.0518 51.7156 21.2246 51.2937 21.4238L50.6257 19.9473C51.1531 19.6719 51.7302 19.4639 52.3572 19.3232C52.9841 19.1768 53.5759 19.1035 54.1326 19.1035C55.3689 19.1035 56.3005 19.373 56.9275 19.9121C57.5603 20.4512 57.8767 21.2979 57.8767 22.4521V29H56.4002ZM53.324 27.5938C54.074 27.5938 54.6746 27.3857 55.1257 26.9697C55.5828 26.5479 55.8113 25.959 55.8113 25.2031V24.3594L54.5632 24.4121C53.5906 24.4473 52.8816 24.6113 52.4363 24.9043C51.9968 25.1914 51.7771 25.6338 51.7771 26.2314C51.7771 26.665 51.906 27.002 52.1638 27.2422C52.4216 27.4766 52.8084 27.5938 53.324 27.5938ZM68.6813 29H66.6071V23.0234C66.6071 22.2734 66.4547 21.7139 66.15 21.3447C65.8512 20.9756 65.3737 20.791 64.7174 20.791C63.8444 20.791 63.2057 21.0488 62.8014 21.5645C62.3971 22.0801 62.195 22.9443 62.195 24.1572V29H60.1295V19.2793H61.7467L62.0368 20.5537H62.1422C62.4352 20.0908 62.8512 19.7334 63.3903 19.4814C63.9293 19.2295 64.527 19.1035 65.1832 19.1035C67.5153 19.1035 68.6813 20.29 68.6813 22.6631V29ZM79.4771 29H77.4029V23.0234C77.4029 22.2734 77.2505 21.7139 76.9458 21.3447C76.647 20.9756 76.1695 20.791 75.5132 20.791C74.6402 20.791 74.0015 21.0488 73.5972 21.5645C73.1929 22.0801 72.9907 22.9443 72.9907 24.1572V29H70.9253V19.2793H72.5425L72.8325 20.5537H72.938C73.231 20.0908 73.647 19.7334 74.1861 19.4814C74.7251 19.2295 75.3228 19.1035 75.979 19.1035C78.3111 19.1035 79.4771 20.29 79.4771 22.6631V29ZM85.9662 29.1758C84.4545 29.1758 83.2709 28.7363 82.4154 27.8574C81.5658 26.9727 81.141 25.7568 81.141 24.21C81.141 22.6221 81.5365 21.374 82.3275 20.4658C83.1186 19.5576 84.2055 19.1035 85.5883 19.1035C86.8715 19.1035 87.8852 19.4932 88.6293 20.2725C89.3734 21.0518 89.7455 22.124 89.7455 23.4893V24.6055H83.268C83.2973 25.5488 83.5521 26.2754 84.0326 26.7852C84.5131 27.2891 85.1898 27.541 86.0629 27.541C86.6371 27.541 87.1703 27.4883 87.6625 27.3828C88.1605 27.2715 88.6937 27.0898 89.2621 26.8379V28.5166C88.7582 28.7568 88.2484 28.9268 87.7328 29.0264C87.2172 29.126 86.6283 29.1758 85.9662 29.1758ZM85.5883 20.668C84.932 20.668 84.4047 20.876 84.0062 21.292C83.6137 21.708 83.3793 22.3145 83.3031 23.1113H87.7152C87.7035 22.3086 87.5102 21.7021 87.1352 21.292C86.7602 20.876 86.2445 20.668 85.5883 20.668ZM96.3929 19.1035C96.8089 19.1035 97.1516 19.1328 97.4212 19.1914L97.219 21.1162C96.9261 21.0459 96.6214 21.0107 96.305 21.0107C95.4788 21.0107 94.8079 21.2803 94.2923 21.8193C93.7825 22.3584 93.5276 23.0586 93.5276 23.9199V29H91.4622V19.2793H93.0794L93.3518 20.9932H93.4573C93.7796 20.4131 94.1985 19.9531 94.7141 19.6133C95.2356 19.2734 95.7952 19.1035 96.3929 19.1035Z" fill="white"/>
</g>
<defs>
<filter id="filter0_d" x="0" y="0" width="137.098" height="51" filterUnits="userSpaceOnUse" color-interpolation-filters="sRGB">
<feFlood flood-opacity="0" result="BackgroundImageFix"/>
<feColorMatrix in="SourceAlpha" type="matrix" values="0 0 0 0 0 0 0 0 0 0 0 0 0 0 0 0 0 0 127 0"/>
<feOffset dy="4"/>
<feGaussianBlur stdDeviation="3.5"/>
<feColorMatrix type="matrix" values="0 0 0 0 0 0 0 0 0 0 0 0 0 0 0 0 0 0 0.25 0"/>
<feBlend mode="normal" in2="BackgroundImageFix" result="effect1_dropShadow"/>
<feBlend mode="normal" in="SourceGraphic" in2="effect1_dropShadow" result="shape"/>
</filter>
</defs>
</svg>
