<svg width="138" height="51" viewBox="0 0 138 51" fill="none" xmlns="http://www.w3.org/2000/svg">
<g filter="url(#filter0_d)">
<rect x="9" y="5" width="119.098" height="33" rx="16.5" stroke="white" stroke-width="4"/>
<path d="M34.2132 29.0476H32.1126V17.9998H28.3333V16.198H37.9925V17.9998H34.2132V29.0476ZM47.7424 24.1697C47.7424 25.7576 47.3351 26.9968 46.5207 27.8875C45.7062 28.7781 44.5725 29.2234 43.1193 29.2234C42.2111 29.2234 41.4084 29.0183 40.7111 28.6082C40.0139 28.198 39.4777 27.6091 39.1027 26.8416C38.7277 26.074 38.5402 25.1833 38.5402 24.1697C38.5402 22.5935 38.9445 21.363 39.7531 20.4783C40.5617 19.5935 41.7014 19.1511 43.1721 19.1511C44.5783 19.1511 45.6916 19.6052 46.5119 20.5134C47.3322 21.4158 47.7424 22.6345 47.7424 24.1697ZM40.6672 24.1697C40.6672 26.4138 41.4963 27.5359 43.1545 27.5359C44.7951 27.5359 45.6154 26.4138 45.6154 24.1697C45.6154 21.949 44.7893 20.8386 43.1369 20.8386C42.2697 20.8386 41.6398 21.1257 41.2473 21.7C40.8605 22.2742 40.6672 23.0974 40.6672 24.1697ZM64.2099 22.4998C64.2099 24.6208 63.621 26.2439 62.4433 27.3689C61.2656 28.488 59.5693 29.0476 57.3544 29.0476H53.7597V16.198H57.7324C59.7773 16.198 61.3681 16.7488 62.5048 17.8503C63.6416 18.9519 64.2099 20.5017 64.2099 22.4998ZM61.9951 22.5701C61.9951 19.4939 60.5566 17.9558 57.6796 17.9558H55.8603V27.281H57.3544C60.4482 27.281 61.9951 25.7107 61.9951 22.5701ZM74.7508 24.1697C74.7508 25.7576 74.3436 26.9968 73.5291 27.8875C72.7147 28.7781 71.5809 29.2234 70.1278 29.2234C69.2196 29.2234 68.4168 29.0183 67.7196 28.6082C67.0223 28.198 66.4862 27.6091 66.1112 26.8416C65.7362 26.074 65.5487 25.1833 65.5487 24.1697C65.5487 22.5935 65.953 21.363 66.7616 20.4783C67.5701 19.5935 68.7098 19.1511 70.1805 19.1511C71.5868 19.1511 72.7 19.6052 73.5203 20.5134C74.3407 21.4158 74.7508 22.6345 74.7508 24.1697ZM67.6756 24.1697C67.6756 26.4138 68.5047 27.5359 70.1629 27.5359C71.8035 27.5359 72.6239 26.4138 72.6239 24.1697C72.6239 21.949 71.7977 20.8386 70.1453 20.8386C69.2782 20.8386 68.6483 21.1257 68.2557 21.7C67.869 22.2742 67.6756 23.0974 67.6756 24.1697ZM80.7682 29.0476V16.198H82.8687V27.2458H88.3092V29.0476H80.7682ZM91.7397 29.0476H89.6743V19.3269H91.7397V29.0476ZM89.5512 16.7517C89.5512 16.3826 89.6509 16.0984 89.8501 15.8992C90.0551 15.7 90.3452 15.6003 90.7202 15.6003C91.0835 15.6003 91.3647 15.7 91.5639 15.8992C91.769 16.0984 91.8716 16.3826 91.8716 16.7517C91.8716 17.1033 91.769 17.3816 91.5639 17.5867C91.3647 17.7859 91.0835 17.8855 90.7202 17.8855C90.3452 17.8855 90.0551 17.7859 89.8501 17.5867C89.6509 17.3816 89.5512 17.1033 89.5512 16.7517ZM100.602 26.2791C100.602 27.2283 100.256 27.9578 99.5648 28.4675C98.8734 28.9714 97.8832 29.2234 96.5941 29.2234C95.2992 29.2234 94.2591 29.0271 93.474 28.6345V26.8503C94.6166 27.3777 95.68 27.6414 96.6644 27.6414C97.9359 27.6414 98.5716 27.2576 98.5716 26.49C98.5716 26.2439 98.5013 26.0388 98.3607 25.8748C98.2201 25.7107 97.9886 25.5408 97.6664 25.365C97.3441 25.1892 96.8959 24.99 96.3216 24.7673C95.2025 24.3337 94.4437 23.9001 94.0453 23.4666C93.6527 23.033 93.4564 22.4705 93.4564 21.7791C93.4564 20.947 93.7904 20.3025 94.4584 19.8455C95.1322 19.3826 96.0462 19.1511 97.2005 19.1511C98.3431 19.1511 99.4242 19.3826 100.444 19.8455L99.7757 21.4011C98.7269 20.9675 97.8451 20.7507 97.1302 20.7507C96.0404 20.7507 95.4955 21.0613 95.4955 21.6824C95.4955 21.9871 95.6361 22.2449 95.9173 22.4558C96.2044 22.6667 96.8255 22.9568 97.7806 23.3259C98.5834 23.6365 99.1664 23.9207 99.5296 24.1785C99.8929 24.4363 100.162 24.7351 100.338 25.075C100.514 25.4089 100.602 25.8103 100.602 26.2791ZM105.834 27.5535C106.338 27.5535 106.842 27.4744 107.346 27.3162V28.8718C107.117 28.9714 106.822 29.0535 106.458 29.1179C106.101 29.1882 105.729 29.2234 105.342 29.2234C103.385 29.2234 102.406 28.1921 102.406 26.1296V20.8914H101.079V19.9773L102.503 19.2214L103.206 17.1648H104.481V19.3269H107.249V20.8914H104.481V26.0945C104.481 26.5925 104.604 26.9617 104.85 27.2019C105.102 27.4363 105.43 27.5535 105.834 27.5535Z" fill="white"/>
</g>
<defs>
<filter id="filter0_d" x="0" y="0" width="137.098" height="51" filterUnits="userSpaceOnUse" color-interpolation-filters="sRGB">
<feFlood flood-opacity="0" result="BackgroundImageFix"/>
<feColorMatrix in="SourceAlpha" type="matrix" values="0 0 0 0 0 0 0 0 0 0 0 0 0 0 0 0 0 0 127 0"/>
<feOffset dy="4"/>
<feGaussianBlur stdDeviation="3.5"/>
<feColorMatrix type="matrix" values="0 0 0 0 0 0 0 0 0 0 0 0 0 0 0 0 0 0 0.25 0"/>
<feBlend mode="normal" in2="BackgroundImageFix" result="effect1_dropShadow"/>
<feBlend mode="normal" in="SourceGraphic" in2="effect1_dropShadow" result="shape"/>
</filter>
</defs>
</svg>
